<svg xmlns="http://www.w3.org/2000/svg" height="768" preserveAspectRatio="none" style="display: block;" version="1.1" viewBox="0 0 2048 1170" width="1344">
<path d="M 0 0 L 2048 0 L 2048 460.289 L 2048 476.48 L 2048 535.972 L 2048 559.721 L 2048 742.932 L 2048 751.818 L 2048 836.412 L 2048 843.968 L 2048 1170 L 0 1170 L 0 839.064 L 0 831.304 L 0 518.259 L 0 487.854 L 0 387.332 L 0 382.251 L 0 343.543 L 0 334.863 L 0 329.582 L 0 310.389 L 0 0 z" fill="rgb(0,0,0)" transform="translate(0,0)"></path>
<path d="M 306.252 755.481 C 309.51 756.412 326.304 758.1 330.493 758.512 C 371.74 762.731 411.115 760.689 451.974 753.158 C 593.513 727.07 722.784 648.699 823.051 547.015 C 838.286 531.565 852.779 514.744 868.298 499.955 C 919.328 451.326 981.85 409.904 1053.06 400.572 C 1121.89 390.62 1204.33 429.789 1213.45 504.228 L 1211.63 505.446 C 1210.05 498.747 1207.01 491.139 1202.41 486.329 C 1163.47 445.568 1104.37 474.866 1080.97 516.522 C 1064.34 546.125 1061.23 574.111 1068.89 606.761 C 1076.23 637.296 1106.1 677.151 1133.81 692.021 C 1135.14 687.934 1136.02 682.621 1136.86 678.321 C 1189.78 717.015 1252.86 734.965 1319.07 736.281 C 1388.54 736.476 1469.02 724.448 1523.73 678.162 C 1554.23 652.358 1565.16 582.165 1509.06 580.408 C 1494.85 579.963 1482.49 588.784 1472.94 598.887 L 1471.25 597.688 C 1472.65 595.015 1475.69 590.595 1477.42 587.907 C 1477.77 586.8 1478.1 585.719 1478.49 584.626 C 1481.45 583.697 1485.48 578.975 1488.24 576.478 C 1522.71 545.132 1555.99 535.508 1600.03 554.394 C 1689.71 592.856 1727.6 703.737 1829.38 722.516 C 1848.67 726.206 1860.47 725.092 1879.84 723.891 C 1881.81 722.775 1887.04 718.541 1889.11 716.944 C 1852.1 716.308 1828.31 709.231 1795.72 691.447 L 1789.67 687.638 C 1799.99 676.019 1807.87 667.24 1817.47 655.083 L 1832.37 681.209 L 1842.97 670.12 C 1854.87 674.137 1872.91 682.437 1885.81 687.381 C 1891.62 665.185 1898.33 644.247 1903.62 621.618 C 1915.51 626.935 1926.16 631.739 1938.42 636.202 C 1948.43 620.906 1958.43 601.331 1965.91 584.635 L 2007 599.53 C 2023.13 579.005 2035.14 558.5 2048 535.972 L 2048 559.721 L 2048 742.932 L 2048 751.818 L 2048 836.412 L 2048 843.968 L 2048 1170 L 0 1170 L 0 839.064 L 0 831.304 L 0 518.259 L 0 487.854 L 0.440171 488.604 C 3.73092 494.328 9.82413 511.801 12.5213 518.799 C 17.1011 530.495 22.1341 542.008 27.6089 553.312 C 34.8134 568.459 49.6319 598.401 58.9553 611.339 C 100.605 669.141 161.332 708.952 229.731 727.735 C 244.53 731.799 282.392 740.094 298.055 739.99 C 300.353 744.012 306.045 751.867 306.252 755.481 z" fill="rgb(0,0,0)" transform="translate(0,0)"></path>
<path d="M 2048 535.972 L 2048 559.721 C 1972.27 688.562 1827.76 794.762 1683.61 831.693 C 1518.13 874.088 1315.49 831.655 1170.55 745.05 C 1123.2 716.757 1065.11 673.706 1034.13 628.287 C 951.355 747.876 812.499 809.663 673.695 837.46 C 658.249 840.553 642.412 841.859 626.763 843.497 L 624.115 841.417 C 772.881 814.578 949.475 744.645 1032.61 610.763 C 1128.93 735.06 1291.97 805.379 1444.48 829.023 C 1599.97 853.127 1753.34 819.545 1879.84 723.891 C 1881.81 722.775 1887.04 718.541 1889.11 716.944 C 1852.1 716.308 1828.31 709.231 1795.72 691.447 L 1789.67 687.638 C 1799.99 676.019 1807.87 667.24 1817.47 655.083 L 1832.37 681.209 L 1842.97 670.12 C 1854.87 674.137 1872.91 682.437 1885.81 687.381 C 1891.62 665.185 1898.33 644.247 1903.62 621.618 C 1915.51 626.935 1926.16 631.739 1938.42 636.202 C 1948.43 620.906 1958.43 601.331 1965.91 584.635 L 2007 599.53 C 2023.13 579.005 2035.14 558.5 2048 535.972 z" fill="rgb(65,94,243)" transform="translate(0,0)"></path>
<path d="M 1969.12 594.826 C 1979.94 598.824 1990.82 602.679 2001.74 606.39 C 1981.56 634.424 1918.63 699.048 1889.11 716.944 C 1852.1 716.308 1828.31 709.231 1795.72 691.447 C 1802.24 684.07 1810.13 675.576 1816.16 667.947 C 1821.37 675.969 1825.35 685.388 1830.02 693.715 C 1835.29 689.085 1840 684.947 1844.97 679.972 L 1889.78 697.908 C 1896.15 676.849 1904.16 653.971 1908.46 632.731 C 1919.55 637.524 1930.96 641.659 1941.79 646.366 C 1951.96 628.679 1960.72 613.485 1969.12 594.826 z" fill="rgb(0,0,0)" transform="translate(0,0)"></path>
<path d="M 0 487.854 L 0.440171 488.604 C 3.73092 494.328 9.82413 511.801 12.5213 518.799 C 17.1011 530.495 22.1341 542.008 27.6089 553.312 C 34.8134 568.459 49.6319 598.401 58.9553 611.339 C 100.605 669.141 161.332 708.952 229.731 727.735 C 244.53 731.799 282.392 740.094 298.055 739.99 C 300.353 744.012 306.045 751.867 306.252 755.481 C 240.404 748.108 155.109 718.222 105.674 674.403 L 105.66 677.266 C 202.24 783.693 336.857 847.79 480.357 855.674 C 488.741 856.123 508.289 857.34 516.098 856.782 L 514.226 859.241 C 509.862 859.145 505.201 859.523 500.827 859.852 C 436.726 864.667 373.524 853.289 313.256 831.507 C 181.872 784.022 74.8145 688.979 18.2817 560.465 C 12.1366 546.495 6.41023 532.048 0 518.259 L 0 487.854 z" fill="rgb(65,94,243)" transform="translate(0,0)"></path>
<path d="M 105.66 677.266 C 104.23 675.867 95.8896 667.051 95.9789 665.645 C 97.5789 665.153 104.556 672.919 105.674 674.403 L 105.66 677.266 z" fill="rgb(27,39,89)" transform="translate(0,0)"></path>
<path d="M 1489.99 578.064 C 1544.14 551.857 1573.38 605.928 1554.73 652.089 C 1541.75 684.193 1513.58 704.769 1482.49 717.896 C 1370.21 765.3 1236.14 759.322 1133.81 692.021 C 1135.14 687.934 1136.02 682.621 1136.86 678.321 C 1189.78 717.015 1252.86 734.965 1319.07 736.281 C 1388.54 736.476 1469.02 724.448 1523.73 678.162 C 1554.23 652.358 1565.16 582.165 1509.06 580.408 C 1494.85 579.963 1482.49 588.784 1472.94 598.887 L 1471.25 597.688 C 1472.65 595.015 1475.69 590.595 1477.42 587.907 C 1477.77 586.8 1478.1 585.719 1478.49 584.626 C 1481.45 583.697 1485.48 578.975 1488.24 576.478 L 1489.99 578.064 z" fill="rgb(65,94,243)" transform="translate(0,0)"></path>
<path d="M 1488.24 576.478 L 1489.99 578.064 C 1486.69 580.88 1480.89 585.384 1477.42 587.907 C 1477.77 586.8 1478.1 585.719 1478.49 584.626 C 1481.45 583.697 1485.48 578.975 1488.24 576.478 z" fill="rgb(27,39,89)" transform="translate(0,0)"></path>
<path d="M 2048 751.818 C 2045.08 755.747 2042.05 759.599 2038.93 763.37 C 2000.28 809.101 1938.51 851.398 1879.21 865.592 C 1877.38 866.031 1876.62 865.396 1875.41 864.327 C 1875.71 862.989 1875.8 860.841 1877.43 860.428 C 1942.76 843.882 2008.58 797.502 2048 742.932 L 2048 751.818 z" fill="rgb(61,135,154)" transform="translate(0,0)"></path>
<path d="M 0 831.304 C 12.423 843.974 25.9777 853.341 42.9772 858.852 C 45.3766 860.001 49.6377 859.672 50.2946 862.94 C 50.6809 864.862 47.8098 865.118 46.5139 864.844 C 36.1843 862.658 26.8737 858.74 17.9308 853.208 C 10.9982 848.92 6.0397 844.257 0 839.064 L 0 831.304 z" fill="rgb(61,135,154)" transform="translate(0,0)"></path>
<path d="M 2048 843.968 C 2041.5 848.294 2003.8 873.065 1997.85 863.867 C 1998.47 860.348 2002.27 860.724 2005.97 859.858 C 2023.2 855.823 2034.5 846.355 2048 836.412 L 2048 843.968 z" fill="rgb(61,135,154)" transform="translate(0,0)"></path>
<path d="M 608.026 843.916 C 614.546 842.677 617.524 842.159 624.115 841.417 L 626.763 843.497 C 622.449 844.627 612.566 844.126 608.026 843.916 z" fill="rgb(49,76,174)" transform="translate(0,0)"></path>
<path d="M 516.098 856.782 C 517.402 856.651 520.421 855.934 521.24 857.183 C 521.01 858.492 515.473 859.034 514.226 859.241 L 516.098 856.782 z" fill="rgb(49,76,174)" transform="translate(0,0)"></path>
<path d="M 784.763 828.016 C 794.112 827.147 817.754 819.007 826.935 815.96 C 906.205 789.648 987.196 746.139 1033.63 674.386 C 1045.61 689.029 1052.75 699.854 1066.93 714.075 C 1126.08 773.39 1198.6 801.837 1276.76 825.418 L 1272.58 827.501 C 1255.75 823.129 1237.29 818.654 1220.87 813.149 C 1149.83 789.325 1077.23 749.297 1034.53 685.962 C 1027.07 699.931 1016.33 710.997 1005.25 721.964 C 950.218 776.443 875.65 810.291 800.663 826.883 C 795.126 828.108 789.55 829.137 784.064 830.687 L 784.763 828.016 z" fill="rgb(65,94,243)" transform="translate(0,0)"></path>
<path d="M 773.366 656.728 C 775.696 657.345 774.694 656.767 776.381 658.668 C 774.949 662.805 765.92 668.739 762.11 671.467 C 632.15 764.521 423.883 828.186 268.406 768.147 L 265.595 766.376 L 266.056 764.53 C 270.812 762.986 287.081 769.756 292.499 771.217 C 429.972 808.275 577.055 771.357 699.766 705.605 C 726.609 691.222 750.26 675.909 773.366 656.728 z" fill="rgb(61,135,154)" transform="translate(0,0)"></path>
<path d="M 2018.57 654.32 C 2021.39 655.783 2020.63 654.903 2021.95 657.495 C 2021.13 669.203 1985.11 714.065 1975.98 724.461 C 1908.11 801.726 1785.82 860.323 1682.75 865.24 C 1680.62 865.19 1681.63 865.449 1679.69 864.234 L 1680.36 862.403 C 1685.84 859.672 1713.46 856.951 1722.79 855.264 C 1737.37 852.628 1751.81 849.261 1766.05 845.176 C 1870.89 815.175 1964.91 750.92 2018.57 654.32 z" fill="rgb(61,135,154)" transform="translate(0,0)"></path>
<path d="M 792.085 701.905 C 794.295 703.52 793.659 702.495 794.333 704.885 C 788.644 713.58 743.677 738.685 732.666 744.451 C 663.035 780.917 586.015 806.094 507.714 814.343 C 476.156 817.667 447.423 817.826 415.834 816.895 L 414.159 816.601 L 413.121 814.98 C 414.049 811.23 416.56 811.922 419.919 812.116 C 428.592 812.619 437.215 812.692 445.904 812.633 C 471.677 812.714 497.428 811.079 522.985 807.741 C 612.373 795.801 719.707 756.23 792.085 701.905 z" fill="rgb(61,135,154)" transform="translate(0,0)"></path>
<path d="M 1598.09 569.725 C 1608.81 576.484 1619.95 606.556 1622.45 618.758 C 1628.41 648.107 1621.36 678.062 1604.81 702.801 C 1570.43 754.191 1510.33 778.312 1452.1 790.383 C 1450.05 789.709 1451.03 790.222 1449.37 788.282 C 1451.57 784.264 1461.78 783.471 1466.61 782.26 C 1476.6 779.786 1486.48 776.879 1496.22 773.549 C 1559.95 751.206 1630.05 699.321 1617.65 622.391 C 1615.07 606.372 1606.64 586.047 1596.06 573.585 L 1595.51 572.941 L 1598.09 569.725 z" fill="rgb(61,135,154)" transform="translate(0,0)"></path>
<path d="M 1684.78 653.309 C 1689.94 654.36 1702.82 672.187 1707.88 676.687 C 1732.07 698.189 1760.08 713.901 1791.03 723.332 C 1799.03 725.769 1818.65 727.714 1824.86 731.712 L 1825.09 733.154 C 1820.45 734.303 1808.78 731.879 1803.61 730.852 C 1761.04 722.392 1722.98 699.272 1693.02 668.226 C 1693.16 678.393 1692.42 686.01 1690.79 695.943 C 1683 731.685 1661.67 758.726 1631.95 779.706 C 1624.75 784.789 1599.71 799.848 1591.42 798.312 L 1590.42 796.664 C 1591.57 795.216 1612.9 785.943 1617.28 783.217 C 1665.52 753.225 1695.53 711.429 1684.78 653.309 z" fill="rgb(61,135,154)" transform="translate(0,0)"></path>
<path d="M 1583.22 593.243 L 1586.13 594.756 C 1588.56 599.43 1589.43 605.207 1590.03 610.413 C 1602.53 717.91 1467.23 765.448 1383.3 774.524 C 1382.94 774.623 1381.13 774.551 1380.62 774.543 L 1379.88 772.869 C 1380.68 771.426 1381.73 769.891 1383.67 769.655 C 1464.62 759.847 1595.08 715.123 1584.72 612.151 C 1584.11 606.123 1582.76 599.177 1583.22 593.243 z" fill="rgb(61,135,154)" transform="translate(0,0)"></path>
<path d="M 812.723 740.85 C 814.164 741.151 814.233 741.447 815.553 742.387 C 815.526 742.984 815.683 743.922 815.171 744.254 C 724.475 802.925 618.036 830.943 511.122 838.85 C 510.562 838.8 508.59 838.106 507.929 837.893 L 507.991 836.501 C 511.854 832.418 532.694 832.122 539.686 831.4 C 559.828 829.517 579.873 826.71 599.758 822.987 C 669.168 809.505 753.329 779.839 812.723 740.85 z" fill="rgb(61,135,154)" transform="translate(0,0)"></path>
<path d="M 29.3652 654.349 C 34.2505 655.859 38.6614 668.469 41.1013 673.393 C 45.8397 682.926 51.0596 692.211 56.7407 701.214 C 101.477 772.079 175.616 818.528 252.507 847.581 L 253.055 849.06 C 169.728 829.405 84.7935 763.453 43.0214 689.136 C 39.0181 682.014 25.8611 661.777 29.3652 654.349 z" fill="rgb(61,135,154)" transform="translate(0,0)"></path>
<path d="M 1643.27 611.463 C 1647.58 613.567 1648.57 616.664 1650.19 621.222 C 1680.3 706.233 1604.41 771.928 1533.25 799.975 L 1531.57 798.395 L 1531.69 796.532 C 1535.58 793.468 1542.54 791.234 1547.28 789.047 C 1602.99 763.369 1659.23 710.182 1650.89 643.378 C 1649.75 634.238 1640.98 617.326 1643.27 611.463 z" fill="rgb(61,135,154)" transform="translate(0,0)"></path>
<path d="M 1027.52 756.43 C 1036.31 762.762 1044.64 771.136 1053.71 777.535 C 1084.87 799.517 1119.04 816.737 1155.33 828.279 C 1170.45 832.991 1185.87 836.704 1201.47 839.393 C 1206.26 840.177 1220.42 841.457 1223.41 843.369 L 1223.55 845.026 L 1221.86 847.015 C 1184.03 843.437 1147.07 833.566 1112.5 817.811 C 1095.99 810.398 1031.43 774.942 1025.62 759.629 L 1027.52 756.43 z" fill="rgb(61,135,154)" transform="translate(0,0)"></path>
<path d="M 1014.95 446.658 C 1015.4 446.89 1016.67 448.057 1017.13 448.459 C 1016.96 449.584 993.611 475.513 990.131 480.259 C 960.315 520.92 946.469 579.666 972.191 625.714 C 974.942 630.639 980.386 637.594 982.499 642.374 L 980.563 645.6 C 978.923 644.606 977.674 643.493 976.471 642.005 C 949.744 608.956 947.517 564.527 960.899 525.423 C 971.867 493.376 989.779 468.794 1014.95 446.658 z" fill="rgb(61,135,154)" transform="translate(0,0)"></path>
<path d="M 3.86272 734.62 C 6.13473 736.183 22.9614 764.374 27.4346 770.112 C 55.2193 805.754 92.2197 833.01 133.347 851.415 C 141.433 855.034 151.152 857.013 159.382 860.691 C 163.165 862.382 162.497 862.42 163.918 866.08 C 157.869 866.559 145.722 861.874 139.78 859.551 C 100.668 844.212 65.5061 820.272 36.8999 789.503 C 26.2019 777.814 3.14594 750.978 3.86272 734.62 z" fill="rgb(61,135,154)" transform="translate(0,0)"></path>
<path d="M 931.793 487.47 C 933.089 488.158 933.31 488.566 934.357 489.606 C 934.12 491.159 922.391 514.424 920.512 519.124 C 901.063 567.793 904.401 620.571 938.074 662.079 C 942.524 667.565 949.134 670.851 946.324 677.571 C 887.994 622.916 894.115 551.901 931.793 487.47 z" fill="rgb(61,135,154)" transform="translate(0,0)"></path>
<path d="M 1082.05 446.799 L 1084.34 447.726 C 1085.52 451.668 1079.17 453.64 1075.95 455.627 C 1025.56 486.761 992.631 543.006 1017.2 601.531 C 1018.66 605.029 1018.37 605.154 1016.74 608.136 C 1014.85 607.635 1013.93 607.026 1013.07 605.076 C 983.356 537.542 1024.62 479.23 1082.05 446.799 z" fill="rgb(61,135,154)" transform="translate(0,0)"></path>
<path d="M 870.369 533.516 C 876.295 536.632 872.986 540.173 871.297 545.574 C 855.469 596.192 863.441 649.884 899.72 689.776 C 903.139 693.536 910.908 700.686 911.845 705.275 C 911.344 705.257 909.443 705.126 909.058 704.812 C 854.672 660.415 848.927 596.096 870.369 533.516 z" fill="rgb(61,135,154)" transform="translate(0,0)"></path>
<path d="M 971.176 793.412 C 974.55 793.716 993.631 809.43 999.07 813.064 C 1008.04 819.046 1017.34 824.516 1026.93 829.449 C 1056.63 844.556 1074.93 848.708 1107.2 854.72 C 1109.43 856.585 1108.8 856.746 1109.26 860.302 C 1065.73 855.02 1009.56 833.041 976.113 802.98 C 972.289 799.543 971.14 797.841 971.176 793.412 z" fill="rgb(61,135,154)" transform="translate(0,0)"></path>
<path d="M 815.293 600.157 C 821.268 601.48 817.984 606.752 817.474 611.975 C 812.995 657.874 839.477 693.545 871.491 723.252 C 871.491 723.252 871.88 726.083 871.921 726.383 L 870.902 726.17 C 861.105 724.056 837.776 694.931 832.018 685.57 C 814.745 657.493 808.256 632.251 815.293 600.157 z" fill="rgb(61,135,154)" transform="translate(0,0)"></path>
<path d="M 1721.34 719.148 C 1722.64 719.439 1723.46 719.866 1724.68 720.381 C 1726.02 723.879 1720.26 737.651 1718.3 741.612 C 1702.52 773.535 1677.28 787.74 1644.76 798.995 L 1643.2 798.298 L 1642.76 796.513 C 1646.93 792.459 1665.37 786.969 1671.59 783.288 C 1698.73 767.231 1712.23 748.512 1721.34 719.148 z" fill="rgb(61,135,154)" transform="translate(0,0)"></path>
<path d="M 904.039 827.515 C 907.862 827.799 931.648 841.819 937.81 844.712 C 945.682 848.373 953.768 851.554 962.024 854.238 C 971.102 857.166 996.702 859.35 1001.73 862.201 L 1002.72 866.127 C 974.066 863.665 951.372 858.006 925.569 844.869 C 918.765 841.405 912.002 838.158 906.119 832.98 C 903.577 830.743 904.17 831.018 904.039 827.515 z" fill="rgb(61,135,154)" transform="translate(0,0)"></path>
<path d="M 1769.56 748.916 C 1771.41 750.012 1773.22 750.909 1771.85 753.334 C 1762.46 769.96 1747.81 780.249 1731.49 789.281 C 1729.97 789.417 1730.37 789.42 1728.83 789.077 L 1728.25 787.577 C 1729.51 784.408 1737.71 780.802 1741.13 778.521 C 1753.74 770.101 1761.27 761.757 1769.56 748.916 z" fill="rgb(61,135,154)" transform="translate(0,0)"></path>
<path d="M 1276.76 825.418 C 1283.7 826.744 1292.27 829.069 1298.78 831.65 C 1287.88 830.575 1283.29 829.618 1272.58 827.501 L 1276.76 825.418 z" fill="rgb(49,76,174)" transform="translate(0,0)"></path>
<path d="M 784.064 830.687 C 776.293 831.495 779.049 829.392 784.763 828.016 L 784.064 830.687 z" fill="rgb(49,76,174)" transform="translate(0,0)"></path>
<path d="M 298.055 739.99 C 305.423 740.73 312.814 741.221 320.215 741.461 C 468.05 747.479 599.172 684.468 705.837 585.278 C 756.473 538.19 800.601 484.857 853.289 437.518 C 929.259 369.26 1026.08 306.315 1132.27 308.422 C 1164.55 309.063 1217.62 322.727 1239.69 346.778 C 1204.43 332.622 1186.3 329.738 1148.48 331.95 C 1147.67 333.214 1147.77 333.125 1147.9 334.758 C 1202.74 344.193 1277.88 367.063 1306.57 419.502 C 1291.09 410.472 1274.32 402.979 1255.96 402.867 L 1251.23 403.354 C 1252.07 404.975 1254.35 405.191 1256.57 405.913 C 1268.53 411.235 1281.77 419.223 1290.26 429.136 C 1303.05 444.083 1311.4 445.212 1327.95 453.959 C 1359.54 470.658 1378.24 494.627 1379.34 531.355 C 1372.46 521.459 1359.54 502.245 1346.86 499.375 C 1336.59 497.049 1331.37 512.03 1339.73 518.138 C 1359.61 532.657 1369.53 554.165 1370.4 578.625 C 1371.1 594.148 1364.29 615.267 1352.44 626.798 C 1332.46 646.228 1313.94 648.462 1289.63 636.698 C 1293.72 636.42 1299.63 636.265 1303.46 635.222 C 1337.37 625.993 1346.26 591.999 1316.09 571.544 C 1306.73 609.32 1274.32 622.543 1238.53 613.798 C 1258.69 602.39 1273.38 590.211 1279.98 566.459 C 1284.92 548.604 1282.49 529.515 1273.23 513.469 C 1268.47 505.31 1262.52 498.84 1255.62 492.512 C 1256.02 499.81 1256.65 506.8 1255.45 514.03 C 1248.26 557.381 1210.5 573.674 1171.44 569.689 C 1197.63 559.197 1220.55 538.626 1207.67 508.101 C 1202.87 496.414 1193.61 487.118 1181.94 482.263 C 1141.74 465.954 1101.31 501.335 1087.72 537.239 C 1077.58 564.79 1078.79 595.236 1091.07 621.899 C 1103.37 648.838 1116.06 659.044 1136.86 678.321 C 1136.02 682.621 1135.14 687.934 1133.81 692.021 C 1106.1 677.151 1076.23 637.296 1068.89 606.761 C 1061.23 574.111 1064.34 546.125 1080.97 516.522 C 1104.37 474.866 1163.47 445.568 1202.41 486.329 C 1207.01 491.139 1210.05 498.747 1211.63 505.446 L 1213.45 504.228 C 1204.33 429.789 1121.89 390.62 1053.06 400.572 C 981.85 409.904 919.328 451.326 868.298 499.955 C 852.779 514.744 838.286 531.565 823.051 547.015 C 722.784 648.699 593.513 727.07 451.974 753.158 C 411.115 760.689 371.74 762.731 330.493 758.512 C 326.304 758.1 309.51 756.412 306.252 755.481 C 306.045 751.867 300.353 744.012 298.055 739.99 z" fill="rgb(61,135,154)" transform="translate(0,0)"></path>
<path d="M 1147.9 334.758 C 1146.66 334.696 1141.09 334.345 1140.44 333.455 C 1141 331.714 1146.91 331.98 1148.48 331.95 C 1147.67 333.214 1147.77 333.125 1147.9 334.758 z" fill="rgb(27,46,59)" transform="translate(0,0)"></path>
<path d="M 1213.45 504.228 C 1214.17 506.118 1214.26 507.572 1213.93 509.592 C 1213.8 509.758 1213.68 509.923 1213.55 510.088 C 1212.62 508.963 1212.07 506.823 1211.63 505.446 L 1213.45 504.228 z" fill="rgb(27,46,59)" transform="translate(0,0)"></path>
<path d="M 1454.24 557.032 C 1481.58 498.327 1560.65 500.785 1610.87 524.954 C 1686.17 561.198 1721.36 640.672 1789.67 687.638 L 1795.72 691.447 C 1828.31 709.231 1852.1 716.308 1889.11 716.944 C 1887.04 718.541 1881.81 722.775 1879.84 723.891 C 1860.47 725.092 1848.67 726.206 1829.38 722.516 C 1727.6 703.737 1689.71 592.856 1600.03 554.394 C 1555.99 535.508 1522.71 545.132 1488.24 576.478 C 1485.48 578.975 1481.45 583.697 1478.49 584.626 C 1480.36 577.963 1482.77 570.097 1484.32 563.458 C 1467.17 583.424 1469.86 584.699 1458.61 606.311 C 1459.41 597.238 1460.28 591.763 1462.09 582.818 C 1457.46 588.033 1454.53 591.55 1451.13 597.863 C 1449.75 596.065 1449.66 596.236 1449.23 594.171 C 1455.91 564.447 1472.16 553.746 1497.39 540.75 C 1501.34 539.677 1504.06 538.484 1507.81 536.911 C 1503.76 537.022 1499.25 537.441 1495.17 537.732 C 1476.69 541.554 1469.78 546.947 1454.24 557.032 z" fill="rgb(61,135,154)" transform="translate(0,0)"></path>
<path d="M 0 334.863 C 6.76665 341.007 17.542 347.736 25.3397 353.054 C 37.002 360.867 48.4126 369.05 59.5543 377.59 C 43.2806 381.137 25.366 384.208 9.53613 388.619 C 26.1639 406.023 39.9886 424.615 53.963 444.127 C 59.4752 451.824 67.5734 462.091 72.4191 469.926 C 54.4871 465.856 34.5998 462.513 16.3573 459.296 C 35.4649 487.074 52.1841 517.516 57.3844 551.156 L 53.8125 550.559 C 48.584 539.561 35.0802 522.242 24.6676 516.424 C 21.3517 514.571 16.1303 512.512 12.3085 510.602 C 25.0269 507.635 36.8869 520.022 45.7362 527.498 C 37.5444 503.518 14.8451 469.206 0.700678 447.202 L 55.6827 458.87 C 37.7666 434.274 20.267 410.136 0 387.332 L 0 382.251 L 0 343.543 L 0 334.863 z" fill="rgb(61,135,154)" transform="translate(0,0)"></path>
<path d="M -5.68434e-14 343.543 C 14.3998 353.048 28.4971 363.004 42.2712 373.395 C 30.3165 375.173 12.0534 379.331 0 382.251 L 0 343.543 z" fill="rgb(0,0,0)" transform="translate(0,0)"></path>
<path d="M 2048 460.289 L 2048 476.48 C 2046.26 479.56 2044.61 482.785 2043.18 486.014 C 2030.59 514.269 2014.97 540.345 1999.56 567.13 C 1992.53 550.381 1982.54 531.952 1973.06 516.45 C 1962.82 545.266 1946.89 574.711 1932.8 602.073 C 1925.71 591.479 1919.22 581.538 1910.49 572.224 C 1898.66 595.458 1877.67 632.502 1862.12 653.219 C 1859.64 645.533 1848.45 614.065 1850.13 608.404 L 1852.13 607.895 C 1855.41 610.813 1862.56 633.009 1864.49 638.599 C 1882.43 610.048 1894.65 588.533 1909.75 558.778 C 1916.49 568.541 1924.86 578.782 1932.23 588.196 C 1948 556.272 1959.27 533.405 1971.31 499.988 C 1982.83 517.967 1990.91 532.801 2000.2 551.804 C 2021.12 517.569 2030.66 495.356 2048 460.289 z" fill="rgb(61,135,154)" transform="translate(0,0)"></path>
<path d="M 0 310.389 C 9.49076 312.54 16.0361 313.977 25.2798 316.859 C 16.5878 321.3 8.69068 324.468 0 329.582 L 0 310.389 z" fill="rgb(61,135,154)" transform="translate(0,0)"></path>
<path d="M 1466.35 612.321 C 1467.35 607.59 1468.63 601.825 1471.25 597.688 L 1472.94 598.887 C 1471.57 602.517 1468.2 608.603 1466.35 612.321 z" fill="rgb(49,76,174)" transform="translate(0,0)"></path>
<path d="M 1449.23 594.171 C 1449.66 596.236 1449.75 596.065 1451.13 597.863 C 1450.76 598.863 1450.05 601.479 1448.79 601.604 C 1447.81 600.775 1448.98 595.491 1449.23 594.171 z" fill="rgb(57,117,139)" transform="translate(0,0)"></path>
<path d="M 53.8125 550.559 L 57.3844 551.156 C 57.6598 552.768 58.0765 554.353 57.7038 555.94 C 57.6052 556.012 57.5066 556.084 57.408 556.155 C 56.4919 555.732 54.4764 551.717 53.8125 550.559 z" fill="rgb(57,117,139)" transform="translate(0,0)"></path>
<path d="M 632.976 612.961 C 632.36 620.51 611.438 636.364 605.523 640.907 C 584.191 657.293 560.248 670.721 535.492 681.16 C 539.744 670.711 542.144 662.297 545.255 651.513 C 521.299 675.37 496.605 692.071 467.163 708.252 C 471.096 697.032 474.774 685.724 478.193 674.337 C 470.997 679.193 463.717 683.925 456.356 688.528 C 423.933 708.467 387.545 721.117 349.188 720.195 C 345.162 720.099 341.931 720.467 337.951 719.521 L 339.106 718.387 C 405.607 711.432 436.387 698.523 489.566 656.67 C 486.905 668.208 482.986 681.276 479.82 692.811 C 512.879 673.106 530.596 656.689 556.45 628.982 C 554.361 642.028 551.511 654.94 547.913 667.653 C 580.45 651.464 605.526 637.103 632.976 612.961 z" fill="rgb(61,135,154)" transform="translate(0,0)"></path>
<metadata><recraft-signature>{"signed_by": "recraft", "signature_b64": "q7B5MKGQOCQwxcZWc8K58H+sytBGwnSrFhERGKUxDKEUhPywMSS+sFV9M6W+ehGVk4gCz3XXVAT5t+JFMIU9Aw==", "signing_algo": "Ed25519", "generation_timestamp": 1781044583, "identifier": "dfe97c70-e944-4680-9752-ef1fe64469fd"}</recraft-signature></metadata></svg>