<svg xmlns="http://www.w3.org/2000/svg" height="1024" preserveAspectRatio="none" style="display: block;" version="1.1" viewBox="0 0 2048 2048" width="1024">
<defs>
	<linearGradient gradientUnits="userSpaceOnUse" id="Gradient1" x1="1072.42" x2="979.089" y1="1811.01" y2="260.704">
		<stop class="stop0" offset="0" stop-color="rgb(34,127,240)" stop-opacity="1"></stop>
		<stop class="stop1" offset="1" stop-color="rgb(165,237,235)" stop-opacity="1"></stop>
	</linearGradient>
</defs>
<path d="M 0 0 L 2048 0 L 2048 2048 L 0 2048 L 0 0 z" fill="rgb(0,0,0)" transform="translate(0,0)"></path>
<path d="M 1024.77 253.94 C 1035.38 278.107 1038.47 294.492 1039.63 320.948 C 1095.17 320.052 1150.72 319.749 1206.27 320.039 C 1237.87 320.041 1280.06 318.847 1311.06 321.647 C 1386.18 328.694 1456.61 361.272 1510.62 413.951 C 1572.87 474.859 1608.33 558.032 1609.17 645.119 C 1610.04 705.473 1609.31 767.7 1609.26 828.216 L 1609.16 1147.7 L 1609.35 1297.46 C 1609.44 1344.61 1612.18 1393.5 1601.83 1439.36 C 1587.68 1502.06 1558.16 1553.9 1513.68 1599.83 C 1453.76 1661.24 1372.06 1696.58 1286.27 1698.17 C 1250.93 1698.65 1215.38 1697.93 1179.98 1698.43 C 1177.56 1734.26 1169.63 1755.77 1145.39 1782.01 C 1147.33 1767.13 1150.25 1753.47 1150.19 1738.54 C 1131.47 1781.27 1095.26 1808.66 1049.05 1815.5 C 1073.67 1792.7 1085.32 1781.01 1101.07 1750.64 C 1054.97 1773.23 1009.44 1783.28 958.523 1772.87 C 1004.92 1759.36 1045.51 1742.49 1070.67 1698.37 L 864.215 1698.21 L 794.517 1698.24 C 776.669 1698.27 757.381 1698.68 739.694 1697.13 C 660.803 1689.69 587.146 1654.37 531.945 1597.52 C 476.967 1541.51 442.89 1460.37 440.477 1382 C 439.668 1355.75 440.094 1329.06 440.131 1302.77 L 440.015 1163.67 L 440.022 837.803 C 440.028 774.164 440 710.386 440.104 646.756 C 440.138 626.304 445.147 574.388 453.488 555.848 C 456.151 543.283 464.269 523.533 469.564 511.685 C 478.923 488.481 498.7 458.521 514.586 439.711 C 531.875 417.693 577.064 377.571 601.918 365.368 C 694.416 312.784 755.82 320.328 858.259 320.094 C 907.843 319.98 959.085 319.524 1008.74 320.23 C 1011.41 299.74 1015.2 272.407 1024.77 253.94 z" fill="url(#Gradient1)" transform="translate(0,0)"></path>
<path d="M 611.091 371.807 C 641.276 357.18 664.16 345.232 698.261 338.096 C 744.098 328.504 793.544 330.824 840.422 330.775 L 1008.54 330.862 C 1007.69 365.886 1011 402.142 996.762 435.201 C 989.978 450.947 981.043 451.967 967.054 444.397 C 934.727 426.902 922.355 400.815 912.613 366.936 C 908.448 365.862 911.484 359.095 908.956 358.983 C 908.054 358.942 904.972 362.917 903.392 364.156 C 899.831 366.951 901.831 366.387 896.511 367.109 C 887.781 408.907 900.112 447.929 931.713 477.162 C 935.423 480.594 943.758 484.483 946.147 487.971 C 944.878 489.963 945.39 489.372 943.274 490.821 C 943.711 494.99 943.549 494.485 946.656 496.729 C 935.153 502.711 927.349 500.363 915.843 495.398 C 915.069 494.887 914.35 494.378 913.528 493.947 C 912.346 493.53 912.383 493.669 911.763 492.699 C 911.955 492.509 912.422 491.862 912.861 491.814 C 913.137 491.783 913.526 492 913.731 492.16 C 914.013 492.378 914.27 492.629 914.557 492.842 C 914.962 493.141 914.919 493.054 915.413 493.004 C 915.817 492.668 915.682 492.865 915.858 492.442 C 915.601 491.296 914.407 490.675 914.428 489.432 C 914.444 488.442 915.563 488.322 915.783 487.505 C 915.232 486.443 911.606 486.56 913.032 484.028 L 912.256 482.933 C 909.528 479.16 903.7 474.644 901.211 470.856 C 895.017 461.426 891.067 449.299 886.229 439.495 C 881.345 454.345 878.458 466.23 882.261 481.757 C 888.545 507.413 905.891 528.471 927.18 543.296 C 921.421 581.698 917.928 611.422 952.594 638.291 C 937.786 640.127 922.807 644.98 908.628 649.581 C 839.615 671.977 780.447 724.256 734.581 779.656 L 736.425 781.33 C 786.675 729.931 848.455 676.821 917.962 655.723 C 930.355 651.962 945.966 647.312 958.849 646.399 C 976.555 665.546 978.528 699.466 973.422 723.784 C 898.497 726.728 816.629 758.626 758.271 804.458 C 751.093 810.095 724.298 834.506 719.975 836.089 C 711.748 826.067 672.763 813.457 658.975 816.855 C 644.635 820.389 631.457 826.496 622.105 838.637 C 620.454 840.779 618.589 845.26 616.506 848.147 C 612.833 849.516 614.558 849.538 611.191 848.687 C 601.361 836.257 625.991 815.416 623.808 810.794 C 608.215 777.783 620.256 782.216 654.928 754.237 L 658.371 751.46 L 658.372 750.215 C 648.48 747.424 623.579 754.572 613.878 759.979 C 601.511 766.776 591.793 777.54 586.29 790.535 C 581.892 800.892 581.114 803.525 574.25 812.641 C 575.049 817.438 575.813 825.57 577.026 829.932 C 578.959 836.887 573.231 850.755 566.368 846.274 C 561.436 836.755 566.404 824.671 563.675 815.373 C 563.038 813.206 555.629 807.941 553.272 806.221 C 558.871 781.455 566.474 769.833 572.142 749.736 C 542.733 762.797 511.452 793.823 525.835 828.633 C 513.89 868.466 554.263 862.703 565.692 892.477 C 573.283 912.253 567.608 934.748 565.815 955.075 C 560.721 1004.38 575.141 1055.62 611.143 1090.89 C 610.797 1106.02 610.375 1120.29 611.559 1135.42 C 618.209 1220.41 654.571 1295.71 713.242 1357.03 C 753.11 1398.19 800.675 1431.12 853.235 1453.94 C 880.661 1465.64 908.839 1475.48 937.58 1483.42 C 1007.36 1502.41 1198.35 1532.45 1144.43 1644.47 C 1100.03 1631.78 1046.57 1639.36 1015.54 1676.04 C 1037.68 1675.22 1063.19 1674.15 1084.02 1683.34 L 1087.49 1685.29 L 1087.44 1686.65 C 1083.58 1688.27 1081.68 1688.03 1077.39 1688.19 C 1063.86 1690.39 1041.1 1688.79 1026.56 1688.61 C 1000.19 1688.45 973.819 1688.46 947.448 1688.64 L 825.603 1688.61 C 799.48 1688.55 768.027 1689.31 742.423 1687.06 C 682.308 1681.29 624.956 1659.02 576.694 1622.71 C 509.606 1572.2 465.349 1497.08 453.67 1413.92 C 450.352 1389 450.85 1368.28 450.79 1343.19 L 450.61 1263.69 L 450.387 987.699 L 450.261 751.139 C 450.165 624.809 441.148 552.242 523.123 445.28 C 522.882 445.013 514.948 439.855 514.586 439.711 C 531.875 417.693 577.064 377.571 601.918 365.368 C 603.323 367.243 605.345 368.854 605.399 371.274 C 605.404 371.507 605.665 372.466 605.86 372.53 C 606.861 372.854 610.199 371.945 611.091 371.807 z" fill="rgb(0,0,0)" transform="translate(0,0)"></path>
<path d="M 514.586 439.711 C 531.875 417.693 577.064 377.571 601.918 365.368 C 603.323 367.243 605.345 368.854 605.399 371.274 C 605.404 371.507 605.665 372.466 605.86 372.53 C 606.861 372.854 610.199 371.945 611.091 371.807 C 604.66 376.487 596.574 380.514 589.837 385.231 C 574.777 395.775 560.606 407.011 547.202 419.616 C 538.558 427.215 529.739 439.462 523.123 445.28 C 522.882 445.013 514.948 439.855 514.586 439.711 z" fill="rgb(155,222,236)" transform="translate(0,0)"></path>
<path d="M 913.032 484.028 C 924.213 489.31 928.105 495.527 941.287 491.455 C 941.951 491.247 942.613 491.036 943.274 490.821 C 943.711 494.99 943.549 494.485 946.656 496.729 C 935.153 502.711 927.349 500.363 915.843 495.398 C 915.069 494.887 914.35 494.378 913.528 493.947 C 912.346 493.53 912.383 493.669 911.763 492.699 C 911.955 492.509 912.422 491.862 912.861 491.814 C 913.137 491.783 913.526 492 913.731 492.16 C 914.013 492.378 914.27 492.629 914.557 492.842 C 914.962 493.141 914.919 493.054 915.413 493.004 C 915.817 492.668 915.682 492.865 915.858 492.442 C 915.601 491.296 914.407 490.675 914.428 489.432 C 914.444 488.442 915.563 488.322 915.783 487.505 C 915.232 486.443 911.606 486.56 913.032 484.028 z" fill="rgb(155,222,236)" transform="translate(0,0)"></path>
<path d="M 896.511 367.109 L 896.824 366.236 C 900.452 355.914 903.649 349.397 908.212 339.413 C 909.214 348.171 912.099 359.161 912.613 366.936 C 908.448 365.862 911.484 359.095 908.956 358.983 C 908.054 358.942 904.972 362.917 903.392 364.156 C 899.831 366.951 901.831 366.387 896.511 367.109 z" fill="rgb(155,222,236)" transform="translate(0,0)"></path>
<path d="M 726.2 790.401 C 729.216 786.306 731.125 783.469 734.581 779.656 L 736.425 781.33 C 731.885 786.139 731.401 786.695 726.2 790.401 z" fill="rgb(127,200,214)" transform="translate(0,0)"></path>
<path d="M 1040.04 330.939 L 1208.85 330.846 C 1239.8 330.904 1282.83 329.518 1312.3 332.266 C 1385.74 339.809 1454.36 372.384 1506.62 424.525 C 1548.19 466.395 1577.24 519.038 1590.5 576.526 C 1601.7 626.067 1599.05 672.645 1599.05 723.114 L 1599 869.239 L 1598.96 1362.6 C 1598.75 1453.48 1568.33 1530.94 1503.58 1595.28 C 1451.53 1647.17 1383.14 1679.45 1310 1686.66 C 1274.84 1689.94 1215.12 1688.19 1178.56 1688.24 C 1176.9 1680.62 1176.29 1677.2 1173.29 1670.04 L 1172.86 1668.98 C 1223.5 1587.6 1185.23 1516.63 1109.5 1471.07 C 1060.18 1441.4 1006.1 1425.4 952.8 1404.82 C 846.252 1361.22 759.187 1282.78 731.386 1167.42 C 719.541 1117.76 720.956 1065.85 735.489 1016.9 C 739.072 1004.73 743.651 995.376 747.054 984.84 L 748.244 985.454 C 723.103 1061.02 729.137 1154.3 765.633 1224.94 C 805.125 1300.58 872.777 1357.64 953.984 1383.82 C 1142.4 1444.04 1356.61 1315.61 1414.89 1131.46 C 1428.5 1144.68 1437.71 1163.01 1441.17 1181.6 C 1444.41 1199.03 1441.43 1208.72 1431.85 1222.84 C 1425.08 1221.91 1420.45 1220.96 1414.11 1225.31 C 1401.62 1233.88 1409.14 1252.19 1406.82 1262.51 C 1402.01 1283.98 1368.67 1293.23 1352.73 1304.5 L 1353.77 1305.62 C 1376.94 1312.91 1422.38 1303.71 1425.09 1275.23 C 1425.68 1269.1 1425.58 1263.43 1429.47 1258.45 C 1430.97 1257.74 1432.24 1256.75 1433.78 1257 C 1445.67 1258.97 1445.77 1276.54 1436.87 1282.37 C 1434.86 1283.69 1433.39 1285.19 1431.77 1286.75 C 1426.79 1299.11 1447.49 1301.58 1430.86 1319.04 C 1422.49 1327.83 1409.88 1340.65 1402.18 1350.04 C 1424.58 1348.71 1449.32 1339.59 1461.46 1319.16 C 1465.77 1311.93 1468.91 1304.54 1465.22 1296.51 C 1463.93 1293.71 1469.1 1287.27 1469.76 1284.31 C 1471.54 1275.72 1468.34 1267.64 1475.19 1260.57 C 1478.29 1257.37 1478.36 1256.87 1482.43 1256.63 C 1490.95 1262.42 1485.63 1275 1482.61 1282.04 C 1485.81 1284.79 1493.99 1290.7 1494.67 1293.81 C 1497.53 1307 1478.02 1339.37 1471.98 1350.62 C 1495.26 1342.3 1519.93 1320.56 1524.53 1295.16 C 1525.9 1287.56 1522.27 1281.14 1521.57 1273.63 C 1520.46 1262.63 1520.36 1246.93 1513.5 1237.61 C 1505.95 1227.36 1495.09 1223.47 1487.31 1212.25 C 1488.25 1196.57 1493.7 1186.36 1493.3 1167.48 C 1492.15 1112.22 1471.62 1078.72 1434.68 1041.1 C 1435.78 1018.34 1437.08 996.276 1434.97 973.508 C 1428.38 902.542 1400.49 837.307 1356.9 781.513 C 1294.47 700.437 1202.06 647.866 1100.47 635.623 C 1109.83 625.719 1114.39 619.858 1120.35 607.358 C 1127.36 592.664 1129.15 567.253 1123.3 552.308 C 1123.15 551.027 1122.52 545.554 1123.14 544.805 C 1147.87 514.792 1182.83 489.291 1163.66 444.349 C 1148.62 466.644 1139.17 508.099 1100.84 487.275 C 1149.52 455.871 1176.6 390.889 1141.1 339.727 C 1136.27 376.865 1127.26 404.076 1099.86 431.608 C 1092.75 438.748 1079.11 449.749 1068.69 449.197 C 1062.57 448.873 1060.18 444.482 1056.33 439.821 C 1036.23 403.82 1040.08 371.561 1040.04 330.939 z" fill="rgb(0,0,0)" transform="translate(0,0)"></path>
<path d="M 988.583 458.015 C 1035.64 414.749 1003.92 334.474 1025.07 279.173 C 1028.79 294.688 1030.7 306.77 1031.41 322.675 C 1032.89 355.96 1027.14 414.402 1047.65 442.188 C 1051.64 441.166 1054.05 451.593 1060 454.017 L 1060.7 452.503 C 1058.56 447.565 1058.48 446.041 1055.5 441.215 L 1054.99 440.391 L 1056.33 439.821 C 1060.18 444.482 1062.57 448.873 1068.69 449.197 C 1079.11 449.749 1092.75 438.748 1099.86 431.608 C 1127.26 404.076 1136.27 376.865 1141.1 339.727 C 1176.6 390.889 1149.52 455.871 1100.84 487.275 C 1139.17 508.099 1148.62 466.644 1163.66 444.349 C 1182.83 489.291 1147.87 514.792 1123.14 544.805 C 1122.52 545.554 1123.15 551.027 1123.3 552.308 L 1122.47 553.658 L 1122.19 552.463 C 1121.17 548.188 1121.23 547.675 1118.74 544.271 L 1117.12 543.438 C 1114.5 548.591 1119.03 555.233 1116.67 558.056 L 1116.01 558.082 C 1117.15 566.161 1119.15 581.813 1117.08 589.613 C 1105.24 634.289 1070.49 632.409 1064.13 687.773 C 1057.84 725.667 1089.47 749.884 1070.17 786.957 C 1056.39 813.435 1028.23 821.559 1001.6 809.003 C 988.48 802.816 978.247 789.726 973.937 775.882 C 967.038 753.722 977.936 737.699 982.843 717.089 C 985.43 705.778 985.878 694.082 984.162 682.606 C 977.927 638.986 948.442 633.435 934.428 599.872 C 924.358 575.755 940.069 559.17 930.48 526.737 C 926.393 516.498 922.158 509.606 916.951 500.057 C 916.572 498.506 916.203 496.953 915.843 495.398 C 927.349 500.363 935.153 502.711 946.656 496.729 C 954.141 493.317 962.138 482.871 967.522 476.374 C 951.831 466.272 946.211 459.611 934.753 444.76 C 930.615 447.048 930.813 444.199 932.627 450.853 C 937.54 459.947 957.028 473.995 957.264 478.149 C 955.36 480.42 955.556 480.397 952.889 481.605 C 948.047 480.818 944.282 477.626 940.549 474.507 C 915.721 453.767 904.625 427.823 901.788 396.225 C 901.677 385.536 902.373 379.598 904.51 369.222 C 905.899 374.812 906.885 379.478 909.101 384.829 C 916.581 401.138 923.277 417.64 935.708 430.943 C 950.103 446.347 966.535 458.829 988.583 458.015 z" fill="rgb(0,0,0)" transform="translate(0,0)"></path>
<path d="M 1141.1 339.727 C 1176.6 390.889 1149.52 455.871 1100.84 487.275 C 1139.17 508.099 1148.62 466.644 1163.66 444.349 C 1182.83 489.291 1147.87 514.792 1123.14 544.805 C 1122.52 545.554 1123.15 551.027 1123.3 552.308 L 1122.47 553.658 L 1122.19 552.463 C 1121.17 548.188 1121.23 547.675 1118.74 544.271 L 1117.12 543.438 C 1114.5 548.591 1119.03 555.233 1116.67 558.056 L 1116.01 558.082 C 1110.96 538.401 1121.81 519.052 1132.72 503.633 C 1134.13 501.269 1134.61 500.324 1135.71 497.804 C 1105.72 507.49 1102.57 500.489 1084.42 477.739 C 1109.69 461.345 1133.62 424.324 1140.46 394.889 L 1142.43 396.074 C 1135.69 425.176 1126.94 447.994 1104.32 468.465 C 1101.91 470.643 1094.7 476.597 1094.13 479.232 L 1096.18 480.654 C 1104.35 478.772 1123.55 457.89 1128.55 450.637 C 1147.93 422.498 1151.26 401.088 1145.77 368.437 L 1139 385.767 C 1127.38 415.415 1108.72 441.286 1079.62 455.875 C 1067.04 462.177 1051.86 454.761 1047.65 442.188 C 1051.64 441.166 1054.05 451.593 1060 454.017 L 1060.7 452.503 C 1058.56 447.565 1058.48 446.041 1055.5 441.215 L 1054.99 440.391 L 1056.33 439.821 C 1060.18 444.482 1062.57 448.873 1068.69 449.197 C 1079.11 449.749 1092.75 438.748 1099.86 431.608 C 1127.26 404.076 1136.27 376.865 1141.1 339.727 z" fill="rgb(155,222,236)" transform="translate(0,0)"></path>
<path d="M 1137.29 499.117 C 1140.69 493.678 1145.53 490.421 1149.84 484.796 C 1154.89 478.204 1157.39 473.129 1161.67 466.164 L 1159.88 474.988 C 1155.26 496.958 1139.76 516.609 1123.58 531.51 C 1126.21 523.223 1129.99 513.04 1134.46 505.533 L 1132.72 503.633 C 1134.13 501.269 1134.61 500.324 1135.71 497.804 L 1137.29 499.117 z" fill="rgb(0,0,0)" transform="translate(0,0)"></path>
<path d="M 1135.71 497.804 L 1137.29 499.117 C 1136.29 502.072 1135.93 502.669 1134.46 505.533 L 1132.72 503.633 C 1134.13 501.269 1134.61 500.324 1135.71 497.804 z" fill="rgb(127,200,214)" transform="translate(0,0)"></path>
<path d="M 907.249 390.786 C 907.09 388.347 906.611 386.541 907.94 384.584 C 912.358 396.476 913.623 409.311 920.178 421.114 C 924.977 429.757 928.959 436.711 934.753 444.76 C 930.615 447.048 930.813 444.199 932.627 450.853 C 917.931 433.084 911.161 413.025 907.249 390.786 z" fill="rgb(155,222,236)" transform="translate(0,0)"></path>
<path d="M 1140.46 394.889 C 1141.5 390.728 1141.53 390.174 1143.86 386.772 L 1143.71 388.802 C 1143.58 391.289 1143.07 393.674 1142.43 396.074 L 1140.46 394.889 z" fill="rgb(87,136,159)" transform="translate(0,0)"></path>
<path d="M 981.417 574.157 C 986.936 573.237 992.191 576.855 993.3 582.338 C 994.409 587.822 990.974 593.198 985.531 594.495 C 981.841 595.374 977.965 594.17 975.422 591.355 C 972.879 588.54 972.074 584.562 973.323 580.979 C 974.572 577.397 977.675 574.781 981.417 574.157 z" fill="rgb(155,222,236)" transform="translate(0,0)"></path>
<path d="M 1061.62 575.484 C 1064.95 573.933 1068.85 574.317 1071.8 576.486 C 1074.76 578.655 1076.3 582.263 1075.82 585.897 C 1075.33 589.531 1072.91 592.613 1069.49 593.935 C 1064.44 595.886 1058.76 593.486 1056.64 588.51 C 1054.52 583.534 1056.72 577.772 1061.62 575.484 z" fill="rgb(155,222,236)" transform="translate(0,0)"></path>
<path d="M 1020.06 775.138 C 1028.72 774.424 1037.55 774.044 1041.55 783.719 C 1042.07 784.983 1042.55 787.192 1041.91 788.492 C 1041.03 789.02 1035.9 782.156 1032.86 780.291 L 1031.33 779.331 C 1018.15 777.61 1017.43 779.66 1008.97 786.846 C 1008.69 787.081 1008.51 786.925 1008.16 786.724 C 1006.34 781.744 1016.91 776.517 1020.06 775.138 z" fill="rgb(127,200,214)" transform="translate(0,0)"></path>
<path d="M 629.365 763.199 C 605.467 780.676 602.716 784.56 615.531 811.49 C 608.741 819.052 599.549 831.019 601.347 841.227 C 606.411 869.968 622.987 858.89 631.216 840.39 C 652.18 826.455 660.077 821.008 686.561 827.102 C 683.041 827.871 680.075 828.345 676.54 828.951 C 660.425 829.59 658.357 834.086 655.289 849 C 636.382 854.382 634.697 857.508 634.647 877.428 C 632.152 879.504 622.159 887.247 620.869 888.963 C 603.935 902.972 616.017 967.364 631.926 983.234 C 621.93 1011.88 614.464 1050.25 612.197 1080.56 C 584.35 1047.92 570.516 1005.61 573.704 962.821 C 575.9 934.564 583.35 912.275 571.497 885.103 C 561.824 862.931 542.548 862.6 535.05 851.028 C 533.731 848.973 532.9 846.643 532.622 844.217 C 532.141 839.755 533.386 833.04 533.187 828.358 C 532.793 819.11 529.644 809.861 531.976 800.921 C 533.987 793.213 547.361 775.335 553.528 771.825 C 554.579 774.19 553.432 775.427 552.368 778.725 C 543.596 800.294 541.702 804.847 557.211 822.374 C 556.329 830.482 552.415 844.408 557.719 850.419 C 567.679 861.706 587.595 848.7 585.965 834.757 C 585.131 827.629 584.397 821.154 583.451 814.351 C 589.487 807.409 590.36 803.296 593.631 794.759 C 600.055 777.99 613.359 769.382 629.365 763.199 z" fill="rgb(0,0,0)" transform="translate(0,0)"></path>
<path d="M 668.984 837.937 C 684.28 837.254 703.061 838.11 718.865 838.114 C 710.53 848.732 700.912 858.556 692.633 869.222 C 667.643 901.244 647.973 937.081 634.377 975.357 C 622.717 952.517 618.151 921.665 624.763 896.767 C 640.47 881.507 643.118 887.006 643.224 862.205 C 645.656 861.392 648.071 860.53 650.469 859.621 C 662.401 854.962 664.06 849.031 668.984 837.937 z" fill="rgb(0,0,0)" transform="translate(0,0)"></path>
<path d="M 552.368 778.725 C 555.185 781.838 545.941 797.307 546.915 803.818 C 548.275 812.904 555.748 813.848 557.947 821.575 C 559.732 828.828 555.563 837.001 556.679 844.272 C 557.522 849.762 562.37 853.86 567.951 852.75 C 595.79 847.216 576.132 826.287 584.539 810.752 C 587.42 805.937 588.565 803.116 590.309 797.236 C 595.213 780.696 609.769 770.139 624.517 762.901 C 626.064 762.141 627.934 762.476 629.287 763.367 C 627.528 770.58 614.718 772.165 610.268 783.378 C 605.851 794.507 616.898 801.604 616.529 810.828 C 613.648 816.982 603.418 829.793 602.173 835.84 C 600.869 842.171 606.445 855.944 614.918 856.881 C 618.918 854.75 619.453 855.331 621.226 852.066 C 619.647 850.471 614.081 850.217 610.129 849.051 C 599.19 836.692 615.139 825.095 621.11 814.819 C 624.319 809.296 615.852 796.619 613.564 790.047 C 614.836 780.591 647.931 754.427 654.928 754.237 C 620.256 782.216 608.215 777.783 623.808 810.794 C 625.991 815.416 601.361 836.257 611.191 848.687 C 614.558 849.538 612.833 849.516 616.506 848.147 C 618.589 845.26 620.454 840.779 622.105 838.637 C 631.457 826.496 644.635 820.389 658.975 816.855 C 672.763 813.457 711.748 826.067 719.975 836.089 L 718.865 838.114 C 703.061 838.11 684.28 837.254 668.984 837.937 C 664.06 849.031 662.401 854.962 650.469 859.621 C 648.071 860.53 645.656 861.392 643.224 862.205 C 643.118 887.006 640.47 881.507 624.763 896.767 L 623.493 896.438 C 627.424 890.407 639.6 883.062 640.9 877.584 L 639.53 876.662 C 633.501 878.412 627.078 889.297 620.869 888.963 C 622.159 887.247 632.152 879.504 634.647 877.428 C 634.697 857.508 636.382 854.382 655.289 849 C 658.357 834.086 660.425 829.59 676.54 828.951 C 680.075 828.345 683.041 827.871 686.561 827.102 C 660.077 821.008 652.18 826.455 631.216 840.39 C 622.987 858.89 606.411 869.968 601.347 841.227 C 599.549 831.019 608.741 819.052 615.531 811.49 C 602.716 784.56 605.467 780.676 629.365 763.199 C 613.359 769.382 600.055 777.99 593.631 794.759 C 590.36 803.296 589.487 807.409 583.451 814.351 C 584.397 821.154 585.131 827.629 585.965 834.757 C 587.595 848.7 567.679 861.706 557.719 850.419 C 552.415 844.408 556.329 830.482 557.211 822.374 C 541.702 804.847 543.596 800.294 552.368 778.725 z" fill="rgb(155,222,236)" transform="translate(0,0)"></path>
<path d="M 686.561 827.102 C 686.744 827.143 687.757 827.213 687.973 827.606 C 688.071 827.785 688.019 828.031 687.904 828.187 C 686.684 829.838 678.594 829.01 676.54 828.951 C 680.075 828.345 683.041 827.871 686.561 827.102 z" fill="rgb(72,103,116)" transform="translate(0,0)"></path>
<path d="M 925.892 528.014 C 925.826 528.597 925.737 530.396 925.371 531.12 C 924.471 531.018 919.669 526.916 918.892 526.155 C 901.524 509.154 890.223 491.321 888.634 466.67 C 895.264 477.276 900.397 486.294 911.763 492.699 C 912.383 493.669 912.346 493.53 913.528 493.947 C 914.35 494.378 915.069 494.887 915.843 495.398 C 916.203 496.953 916.572 498.506 916.951 500.057 C 922.158 509.606 926.393 516.498 930.48 526.737 C 928.876 528.725 928.256 529.543 926.931 526.973 C 926.578 526.958 926.059 527.778 925.892 528.014 z" fill="rgb(0,0,0)" transform="translate(0,0)"></path>
<path d="M 916.951 500.057 C 922.158 509.606 926.393 516.498 930.48 526.737 C 928.876 528.725 928.256 529.543 926.931 526.973 C 926.578 526.958 926.059 527.778 925.892 528.014 C 922.17 519.312 919.62 509.585 915.554 501.062 L 916.951 500.057 z" fill="rgb(127,200,214)" transform="translate(0,0)"></path>
<path d="M 913.528 493.947 C 914.35 494.378 915.069 494.887 915.843 495.398 C 916.203 496.953 916.572 498.506 916.951 500.057 L 915.554 501.062 C 914.466 498.141 914.216 497.027 913.528 493.947 z" fill="rgb(72,103,116)" transform="translate(0,0)"></path>
<path d="M 469.564 511.685 C 469.852 513.906 469.723 517.148 468.424 518.979 C 465.902 522.535 465.031 528.741 463.252 531.706 C 460.223 536.758 462.414 537.307 461.842 539.947 L 461.51 540.151 C 461.133 539.829 460.756 539.508 460.38 539.186 C 460.59 538.29 460.196 544.301 460.165 544.513 C 459.401 544.67 459.499 544.632 458.552 544.487 C 458.128 547.848 455.761 551.719 455.428 555.101 C 455.257 556.841 454.343 556.229 453.488 555.848 C 456.151 543.283 464.269 523.533 469.564 511.685 z" fill="rgb(155,222,236)" transform="translate(0,0)"></path>
<path d="M 747.054 984.84 C 747.48 983.328 748.234 979.717 749.533 978.742 C 751.397 979.125 748.491 984.843 748.244 985.454 L 747.054 984.84 z" fill="rgb(87,136,159)" transform="translate(0,0)"></path>
<path d="M 1090.98 644.885 C 1093.28 644.869 1095.57 644.899 1097.87 644.978 C 1183.81 648.047 1277.16 705.804 1334.55 768.13 C 1398.09 837.309 1431.48 928.936 1427.35 1022.78 C 1422.25 1123.66 1377.93 1218.55 1303.85 1287.22 C 1230.72 1354.22 1132.64 1394.19 1033.06 1389.03 C 863.324 1380.24 727.083 1232.08 742.478 1060.81 C 750.274 974.079 781.537 907.636 847.002 848.888 L 845.469 846.683 C 771.303 907.308 726.081 977.487 716.327 1074.88 C 709.131 1154.43 733.789 1233.59 784.891 1294.98 C 828.268 1347.97 889.496 1390.41 952.984 1414.93 C 1032.15 1445.5 1145.48 1473.34 1180.38 1560.69 C 1202.85 1616.96 1166.54 1680.65 1118.49 1710.46 L 1120.22 1712.28 C 1142.47 1700.9 1151.15 1694.91 1167.32 1676.26 C 1172.91 1698.52 1172.21 1722.56 1160.67 1742.96 C 1159.77 1745.44 1159.92 1745.35 1158.03 1747.14 C 1156.67 1744.01 1157.14 1735.52 1157.15 1731.65 C 1155.06 1724.05 1154.23 1721.89 1149.28 1715.39 C 1139.83 1749.17 1120.75 1775.25 1089.82 1792.45 C 1086.68 1794.16 1083.5 1795.77 1080.26 1797.29 C 1096.84 1780.34 1108.64 1758.74 1111.99 1735.09 C 1078.79 1752.39 1054.84 1761.58 1017.13 1766.21 C 1015.51 1766.51 1008.63 1767.87 1007.73 1766.5 C 1008.02 1765.72 1009.13 1765.37 1009.92 1764.99 C 1041.17 1748.35 1067.61 1729.61 1080.5 1696.07 C 1092.77 1695.38 1098.02 1692.51 1107.95 1685.42 C 1089.62 1672.21 1065.88 1667.29 1043.78 1666.17 L 1042.07 1665.88 L 1041.59 1664.86 L 1044.01 1663.53 C 1044.83 1663.13 1045.66 1662.74 1046.49 1662.36 C 1076.97 1648.43 1110.19 1642.31 1142.3 1654.42 C 1143.14 1655.93 1143.53 1656.58 1144.46 1657.99 C 1144.66 1657.78 1144.86 1657.56 1145.05 1657.34 C 1218.47 1543.33 1046.02 1498.85 966.347 1481.75 C 793.49 1444.64 633.782 1322.38 620.466 1134.28 C 613.694 1038.61 645.577 936.76 709.416 862.919 C 775.206 786.816 868.552 739.989 968.89 732.752 C 964.747 743.667 961.743 755.458 963.29 767.507 C 970.196 821.274 1037.22 844.025 1072.15 800.073 C 1084.31 784.768 1086.52 766.154 1083.66 746.965 C 1101.34 752.97 1118.55 760.263 1135.15 768.787 C 1209.28 806.846 1265.2 872.849 1290.57 952.218 C 1329.76 1076.86 1284.82 1220.64 1158.22 1270.41 C 1153.65 1272.2 1149.54 1274 1144.83 1275.47 L 1144.46 1278.5 C 1172.57 1270.78 1200.54 1258.29 1223.56 1240.1 C 1280.31 1195.28 1322.17 1119.97 1331.48 1048.38 C 1341.41 971.935 1320.19 902.746 1274.43 841.66 C 1230.09 782.478 1149.57 734.197 1075.96 724.589 C 1074.38 718.771 1073.34 714.297 1072.68 708.258 C 1070.27 685.554 1076.84 662.809 1090.98 644.885 z" fill="rgb(0,0,0)" transform="translate(0,0)"></path>
<path d="M 1142.3 1654.42 C 1143.14 1655.93 1143.53 1656.58 1144.46 1657.99 C 1139.53 1667.26 1124.5 1679.56 1115.63 1685.5 C 1124.17 1675.91 1136.98 1665.27 1142.3 1654.42 z" fill="rgb(65,131,213)" transform="translate(0,0)"></path>
<path d="M 1144.46 1278.5 C 1140.52 1280.42 1119.15 1285.79 1114.54 1285.51 L 1114.48 1285.34 L 1114.44 1285.47 C 1115.5 1284.44 1141.18 1276.67 1144.83 1275.47 L 1144.46 1278.5 z" fill="rgb(50,94,155)" transform="translate(0,0)"></path>
<path d="M 869.241 829.506 C 864.665 834.819 853.006 844.143 847.002 848.888 L 845.469 846.683 C 852.639 840.547 861.298 834.604 869.241 829.506 z" fill="rgb(87,136,159)" transform="translate(0,0)"></path>
<path d="M 1114.36 1712.78 L 1116.27 1714.4 C 1099.98 1720.78 1098.37 1718.67 1114.36 1712.78 z" fill="rgb(46,63,108)" transform="translate(0,0)"></path>
<path d="M 1017.13 1766.21 C 1015.51 1766.51 1008.63 1767.87 1007.73 1766.5 C 1008.02 1765.72 1009.13 1765.37 1009.92 1764.99 C 1012.33 1765.37 1014.73 1765.77 1017.13 1766.21 z" fill="rgb(22,32,59)" transform="translate(0,0)"></path>
<path d="M 1118.49 1710.46 L 1120.22 1712.28 C 1118.8 1713.01 1117.65 1713.63 1116.27 1714.4 L 1114.36 1712.78 C 1115.74 1712.02 1117.12 1711.25 1118.49 1710.46 z" fill="rgb(50,94,155)" transform="translate(0,0)"></path>
<path d="M 1433.82 1050.66 C 1466.56 1088.44 1486.36 1122.48 1484.65 1175.7 C 1484.21 1189.4 1478.07 1198.49 1479.1 1214.88 C 1496.87 1246.08 1513.99 1227.15 1511.78 1278.37 C 1524.43 1296.96 1505.94 1316.7 1492.9 1329.29 C 1497.08 1319.62 1506.29 1301.01 1503.01 1290.95 C 1502.16 1288.36 1495.75 1283.98 1494.83 1281.19 C 1491.92 1272.37 1499.9 1254.9 1487.36 1250.97 C 1482.14 1249.34 1475.3 1250.54 1470.73 1253.52 C 1466.09 1256.56 1463.36 1260.34 1462.37 1265.79 C 1459.75 1280.21 1462.44 1281.31 1455.11 1293.81 C 1456.4 1297.45 1458.35 1302.47 1459.16 1306.12 C 1453.62 1318.22 1446.05 1326.48 1434.16 1332.76 L 1433.09 1329.48 C 1448.63 1314.43 1448.99 1309.34 1440.07 1289.88 C 1443.3 1286.78 1445.86 1284.65 1448.37 1280.48 C 1456.49 1267.04 1446.63 1244.49 1429.18 1249.53 C 1423.43 1251.2 1420.49 1257.18 1418.16 1262.53 C 1417.47 1266.87 1416.82 1270.95 1416.3 1275.33 C 1411.84 1292.5 1394.23 1296.01 1379.52 1300 C 1395.18 1291.02 1407.33 1284.38 1414.67 1267.1 L 1416.1 1259.16 C 1413.93 1241.36 1410.16 1226.99 1434.19 1232.34 C 1466.1 1201.03 1447.02 1147.9 1417.46 1122.29 C 1425.32 1099.03 1430.8 1075.03 1433.82 1050.66 z" fill="rgb(0,0,0)" transform="translate(0,0)"></path>
<path d="M 1303.45 1113.05 C 1323.12 1035.15 1310.87 952.622 1269.42 883.791 C 1235.66 827.908 1186.34 783.075 1127.5 754.774 C 1112.62 747.54 1098.34 743.258 1082.92 737.655 C 1080.95 736.942 1080.92 736.412 1080.4 734.713 C 1092.58 731.055 1153.9 756.808 1166.11 763.39 C 1236.7 801.453 1291.89 860.87 1314.97 938.791 C 1331.31 993.974 1328.78 1060.55 1305.8 1113.58 L 1303.23 1120.98 L 1300.64 1121.62 L 1303.45 1113.05 z" fill="rgb(0,0,0)" transform="translate(0,0)"></path>
<path d="M 1433.09 1329.48 L 1434.16 1332.76 C 1432.75 1333.83 1430.88 1335.34 1429.04 1335.04 C 1428.21 1333.41 1431.91 1330.64 1433.09 1329.48 z" fill="rgb(22,32,59)" transform="translate(0,0)"></path>
<path d="M 1303.23 1120.98 C 1302.75 1122.11 1301.02 1126.91 1299.67 1127.18 C 1299.13 1126.38 1300.4 1122.6 1300.64 1121.62 L 1303.23 1120.98 z" fill="rgb(46,63,108)" transform="translate(0,0)"></path>
<metadata><recraft-signature>{"signed_by": "recraft", "signature_b64": "LU0EB/DT+Vwe1LSyt6Bfi6TtRzX4FHCigLHDkmdfB84Ie0PS00iFgTZ1UJTrrkfwtX/8cxYn4it2F6jrd/BiDg==", "signing_algo": "Ed25519", "generation_timestamp": 1781044580, "identifier": "ed0d806e-e899-4068-8f69-102abe4e5bc7"}</recraft-signature></metadata></svg>