<svg xmlns="http://www.w3.org/2000/svg" height="1024" preserveAspectRatio="none" style="display: block;" version="1.1" viewBox="0 0 2048 2048" width="1024">
<path d="M 0 0 L 2048 0 L 2048 2048 L 0 2048 L 0 0 z" fill="rgb(0,0,0)" transform="translate(0,0)"></path>
<path d="M 915.044 493.589 C 930.959 487.152 942.861 476.27 955.353 464.66 C 949.726 478.865 941.496 488.286 931.589 499.877 C 962.177 500.102 980.981 495.807 1010.1 488.548 C 1006.16 492.042 1002.56 495.449 998.174 498.384 C 987.082 505.967 980.693 508.295 967.957 513.223 C 974.846 514.484 982.952 515.777 989.086 519.183 L 988.064 521.482 C 963.731 527.322 953.9 522.259 928 538.611 C 934.635 541.429 941.574 543.914 948.344 546.43 C 945.251 548.368 942.644 550.215 939.225 551.51 L 939.958 552.792 C 965.424 559.242 1019.04 542.542 1047.06 538.461 C 1092.04 532.045 1137.92 538.116 1179.68 556.01 C 1283.49 600.749 1284.64 704.517 1189.4 759.798 C 1187.45 760.926 1185.46 761.977 1183.43 762.949 C 1198.65 765.47 1206.78 767.749 1221.02 774.053 C 1249.4 762.194 1283.47 760.085 1300.78 791.121 C 1346.22 785.953 1366.86 798.357 1402.09 823.667 C 1419.39 836.093 1460.1 836.469 1474.36 819.307 C 1486.87 804.26 1466.62 782.803 1455.01 794.704 C 1455.38 797.959 1455.9 798.548 1457.29 801.487 C 1456.94 803.671 1456.88 805.55 1454.52 806.705 C 1442.04 812.816 1434.52 797.567 1440.56 788.632 C 1456.31 765.374 1496.69 776.648 1500.62 804.026 C 1501.79 811.704 1499.73 819.527 1494.92 825.626 C 1476.48 849.206 1430.8 846.795 1404.94 840.535 C 1365.85 831.076 1340.82 825.055 1301.18 835.127 C 1349.32 851.274 1378.7 880.119 1378.39 933.191 C 1399.18 932.425 1411.66 933.37 1431.23 941.406 C 1471.05 957.643 1499.37 996.705 1544.48 999.821 C 1564.8 1001.49 1606.34 999.129 1605.96 970.963 C 1605.77 956.812 1590.32 947.821 1577.06 950.171 C 1564.99 952.312 1562.31 965.183 1554.85 969.012 C 1545.23 967.606 1544.82 947.979 1557.85 941.396 C 1580.16 930.127 1611.41 935.909 1625.24 957.661 C 1636.55 977.796 1622.65 1000.67 1603.59 1009.24 C 1557.96 1031.04 1510.16 1006.58 1462.84 1012.7 C 1448.69 1014.53 1438.73 1022.12 1426.76 1028.85 C 1394.72 1046.84 1363.99 1061.81 1327.1 1048.71 C 1312.19 1043.28 1299.04 1033.9 1289.05 1021.57 C 1252.78 1077.75 1177.83 1085.42 1129.05 1040.94 C 1105.89 1074.39 1078.96 1107.69 1054.95 1140.7 C 1044.17 1155.51 1029.69 1172.92 1020.08 1188.23 C 1063.13 1186.79 1118.55 1181.27 1160.49 1181.8 C 1140.62 1206.6 1106.97 1240.69 1084.74 1264.43 L 976.493 1381.39 C 927.957 1434.27 879.087 1486.84 829.885 1539.09 C 820.198 1549.24 810.568 1559.45 800.995 1569.72 C 795.669 1575.54 789.167 1583.54 783.709 1588.83 L 782.395 1587.97 C 782.971 1582.65 795.647 1565.94 799.484 1560.15 L 837.493 1503.17 L 935.205 1357.66 C 955.292 1327.88 979.552 1293.47 998.223 1263.08 C 979.021 1263.08 958.033 1264.96 938.722 1266.13 C 910.829 1267.81 882.915 1269.1 854.987 1270.02 C 899.16 1203.05 943.742 1136.34 988.729 1069.91 C 958.726 1060.72 940.837 1047.88 919.471 1024.75 C 874.633 1085.88 777.084 1090.16 729.953 1029.49 C 713.922 1047.7 692.003 1056.8 668.03 1059.02 C 622.558 1063.25 599.999 1026.7 557.366 1024.55 C 536.631 1022.96 518.633 1030.94 498.818 1035.83 C 470.671 1042.71 439.415 1039.56 416.583 1020.32 C 401.565 1007.66 399.069 990.595 412.387 974.821 C 424.968 959.922 453.074 958.06 467.195 971.88 C 476.567 981.051 473.936 1000.48 455.907 998.151 L 454.246 996.936 C 453.779 991.662 460.83 982.238 453.45 978.358 C 436.16 969.269 420.9 984.891 427.66 1002.93 C 436.281 1025.92 472.35 1024.84 490.882 1016.39 C 537.091 995.315 553.875 953.514 610.512 958.947 C 613.659 906.987 660.622 874.667 710.575 883.068 C 710.395 867.781 710.093 855.09 714.002 840.016 C 725.832 794.404 767.109 764.367 813.439 762.251 C 821.554 761.88 830.849 764.268 838.759 763.209 C 841.27 760.105 840.797 761.769 840.826 758.26 C 835.175 750.579 812.071 745.432 802.793 743.935 C 787.167 741.414 768.793 746.144 753.828 750.724 C 727.965 758.64 690.963 751.712 673.79 729.072 C 668.642 722.38 666.529 713.838 667.963 705.517 C 672.472 680.8 701.693 668.085 724.491 674.891 C 734.807 677.971 747.159 684.499 744.74 697.41 C 743.784 702.513 739.919 706.792 734.347 705.731 C 728.624 698.193 728.651 691.166 717.817 689.228 C 712.687 688.31 707.068 690.428 703.02 693.586 C 697.713 697.687 694.363 703.82 693.78 710.502 C 692.44 727.072 709.234 734.747 723.374 735.174 C 784.934 737.032 814.83 689.672 880.033 701.575 L 885.345 703.261 C 886.1 697.641 889.675 689.821 892.416 684.754 C 964.481 551.529 1171.63 609.354 1152.06 765.182 C 1166.4 761.62 1172.67 765.788 1186.67 756.866 C 1216.05 737.829 1242.92 714.812 1251.45 679.627 C 1265.59 621.289 1225.96 578.512 1174.23 558.733 C 1141.7 546.294 1111.12 539.832 1075.86 540.068 C 1029.62 540.377 985.278 563.645 939.17 556.658 C 938.721 556.531 938.271 556.404 937.822 556.276 C 930.794 555.735 925.135 554.585 918.221 553.279 C 911.964 564.113 903.836 569.386 891.796 572.524 C 929.969 598.157 984.574 579.218 1026.42 574.792 C 1067.58 570.438 1113.08 574.301 1147.66 599.004 C 1169.21 614.399 1183.84 641.662 1170.39 667.499 C 1163.72 680.337 1158.94 686.174 1146.65 693.879 C 1156.22 675.353 1177.79 663.718 1169.5 636.436 C 1155.08 588.945 1091.69 576.916 1048.91 577.504 C 1003.81 577.85 923.567 608.587 888.003 572.764 C 863.247 575.604 860.065 564.134 832.076 577.948 C 839.772 577.944 856.582 572.865 861.633 574.94 C 852.364 582.401 839.952 579.904 830.207 583.907 C 820.558 587.87 803.835 603.715 793.542 590.613 C 791.683 588.268 790.321 585.569 789.538 582.681 C 789.066 580.218 788.954 580.012 787.958 577.691 C 778.739 570.599 770.953 564.686 780.385 553.937 C 788.731 545.659 796.997 551.248 808.033 549.755 C 812.044 549.212 818.064 546.752 821.96 545.27 C 822.997 532.541 822.459 524.469 836.085 519.441 C 848.83 515.948 861.26 508.699 873.305 504.465 C 892.936 497.565 907.373 485.504 924.601 476.165 L 925.879 477.075 C 923.408 483.752 916.244 487.09 915.044 493.589 z" fill="rgb(45,212,191)" transform="translate(0,0)"></path>
<path d="M 1005.56 615.395 C 1070.26 609.974 1129.97 652.052 1146.31 714.724 C 1150.99 732.669 1149.54 747.843 1148.48 766.135 C 1139.98 769.255 1117.71 779.183 1114.64 788.534 L 1115.96 789.649 C 1125.4 783.31 1140.9 772.175 1151.59 769.482 C 1184.54 761.181 1223.11 772.168 1242.67 801.042 C 1250.91 813.21 1253.29 823.152 1256.54 837.322 C 1241.14 844.301 1229.1 850.913 1219.6 865.672 C 1216.98 869.739 1211.57 880.007 1212.62 884.543 L 1214.62 884.683 C 1221.23 875.387 1222.39 867.274 1231.69 858.196 C 1276.87 814.115 1353.18 847.079 1370 902.852 C 1373.96 915.966 1374.04 925.862 1374.18 939.335 C 1427.82 925.714 1468.25 975.386 1512.41 996.437 C 1537.39 1008.34 1613.48 1011.73 1610.17 970.77 C 1609.58 963.293 1605.91 956.398 1600.03 951.742 C 1586.84 941.147 1565.63 944.727 1557.83 959.051 C 1556.82 960.902 1554.79 962.653 1552.64 962.794 C 1550.6 958.351 1552.98 951.907 1556.13 948.617 C 1576.99 926.74 1637.14 949.241 1623.38 983.304 C 1615.43 1002.4 1592.46 1011.35 1573.68 1013.46 C 1522.14 1019.23 1476.16 990.918 1428.1 1022.41 C 1396.7 1042.98 1355.66 1060.2 1319.75 1040.61 C 1305.94 1033.08 1299.11 1026.14 1288.36 1014.43 C 1256.41 1067.64 1194.56 1081.21 1141.92 1045.32 C 1132.56 1038.93 1126.64 1031.18 1119.56 1022.46 C 1093.88 1053.7 1066.42 1068.15 1024.93 1069.41 C 986.239 1070.58 956.351 1055.12 928.896 1028.63 L 919.347 1018.41 C 913.241 1025.78 907.215 1032.73 900.06 1039.12 C 860.389 1074.59 795.481 1078.71 753.067 1045.63 C 743.673 1038.31 737.568 1032.11 729.608 1023.19 C 718.991 1035.47 708.399 1043.54 693.207 1049.37 C 634.314 1071.98 605.345 1020.32 554.311 1019.85 C 512.766 1019.47 481.167 1048.66 436.046 1027.03 C 425.296 1021.88 413.735 1016.4 409.499 1004.04 C 407.236 997.438 407.727 990.205 410.861 983.972 C 419.001 967.778 443.017 962.241 458.465 970.384 C 465.76 974.23 470.89 984.699 465.621 992.086 C 464.165 994.127 463.227 994.274 461.111 994.308 C 458.379 989.227 462.074 977.751 457.306 975.346 C 438.097 965.659 420.407 976.327 422.147 996.444 C 422.886 1004.84 427.091 1012.55 433.75 1017.71 C 440.443 1022.98 451.039 1025.84 459.535 1026.25 C 518.812 1029.05 538.332 968.752 594.714 962.584 L 596.713 962.374 C 603.496 961.608 607.003 963.175 613.534 965.192 C 615.141 964.199 616.359 945.789 617.551 941.705 C 632.804 889.459 701.367 868.399 743.204 903.394 C 746.285 905.971 754.735 915.751 756.761 916.29 L 757.775 915.14 C 758.979 901.724 725.559 887.828 715.13 884.134 C 714.916 872.063 714.488 862.488 716.475 850.476 C 720.802 824.3 735.558 800.997 757.37 785.893 C 780.304 770.056 808.521 763.812 835.996 768.494 C 833.213 776.758 830.072 793.703 833.077 801.835 L 834.336 801.505 C 838.404 790.239 836.559 777.824 842.328 766.422 C 868.881 713.939 944.705 706.446 987.351 743.337 C 993.219 748.413 1003.37 763.573 1009.23 766.2 L 1009.74 764.759 C 984.956 717.566 932.125 707.677 884.573 722.993 C 897.137 660.908 943.14 621.89 1005.56 615.395 z" fill="rgb(0,0,0)" transform="translate(0,0)"></path>
<path d="M 1119.74 1029.5 L 1125.75 1037.91 C 1116.57 1052.28 1103.66 1068.13 1093.25 1082.02 L 1043.28 1149.24 C 1036.83 1157.79 1016.02 1184.38 1011.91 1193.07 C 1057.13 1192.07 1107.11 1186.37 1151.41 1185.8 C 1126.92 1213.81 1101.75 1239.58 1076.65 1266.88 L 897.041 1460.72 L 847.907 1513.49 C 836.113 1526.01 823.176 1539 812.126 1552.04 L 810.409 1550.7 C 852.891 1490.43 894.723 1425.93 935.934 1364.52 L 979.21 1300.49 C 988.104 1287.32 998.848 1272.05 1006.38 1258.14 C 961.338 1260.55 907.483 1264.92 863.619 1265.19 C 893.66 1217.34 927.718 1170.93 958.297 1123.33 C 968.794 1106.99 983.712 1086.95 992.559 1070.45 C 1043.89 1079.72 1084.81 1068.92 1119.74 1029.5 z" fill="rgb(0,0,0)" transform="translate(0,0)"></path>
<path d="M 930.615 490.353 L 931.383 492.181 C 927.255 496.883 924.281 500.276 920.617 505.372 C 950.053 503.05 963.058 504.091 992.923 496.659 C 974.503 512.859 934.827 513.193 919.379 522.236 C 922.245 524.401 930.919 521.778 934.471 520.881 C 952.796 516.677 956.923 516.028 975.492 518.791 C 960.459 521.819 949.416 522.716 935.612 529.608 L 925.127 536.263 C 922.037 539.038 922.148 538.071 921.432 541.383 C 924.39 544.689 928.067 545.024 932.711 546.18 L 933.139 547.372 L 931.163 548.219 C 926.003 549.039 920.548 549.751 915.521 551.076 C 892.346 578.543 882.102 567.228 854.478 566.561 C 836.279 566.121 815.377 586.258 792.677 576.124 C 791.87 573.279 791.623 574.536 792.872 572.188 L 798.117 571.204 L 799.574 571.388 C 807.13 567.892 806.029 562.648 804.353 555.242 C 813.241 552.261 817.091 551.129 826.349 550.431 C 826.676 539.866 825.488 529.409 836.672 525.089 C 861.033 515.681 886.433 501.454 910.509 492.348 C 907.686 495.656 899.279 501.752 899.543 505.078 C 905.426 505.959 913.486 500.217 918.229 496.746 C 923.156 494.555 925.959 493.082 930.615 490.353 z" fill="rgb(0,0,0)" transform="translate(0,0)"></path>
<path d="M 880.899 529.228 C 881.249 529.781 881.395 529.855 881.59 530.499 C 881.721 530.037 862.299 547.657 860.78 549.434 C 857.585 553.171 850.627 552.356 845.87 551.602 C 841.505 542.736 845.449 538.359 852.211 532.302 C 870.535 535.527 863.207 533.751 880.899 529.228 z" fill="rgb(45,212,191)" transform="translate(0,0)"></path>
<path d="M 856.435 536.29 C 857.941 536.336 864.479 536.034 865.039 537.522 C 864.63 539.851 856.822 547.012 854.874 548.714 C 843.609 550.108 848.151 539.257 856.435 536.29 z" fill="rgb(0,0,0)" transform="translate(0,0)"></path>
<path d="M 1250.59 770.326 C 1270.34 768.59 1289.23 776.841 1297.49 795.615 C 1336.81 791.223 1363.81 799.66 1394.33 824.43 C 1414.3 840.631 1463.76 843.895 1478.75 819.78 C 1482.07 814.537 1483.1 808.165 1481.6 802.143 C 1478.81 790.97 1468.05 784.354 1457.1 788.553 C 1448.03 792.034 1452.91 796.396 1449.85 803.276 C 1446.65 804.393 1448.26 804.333 1444.86 803.196 C 1443.09 800.646 1442.55 798.935 1443.16 795.771 C 1446.18 779.968 1464.03 780.195 1475.97 782.469 C 1503.86 792.662 1503.27 821.532 1476.73 833.318 C 1432.31 853.042 1387.3 826.38 1341.99 824.736 C 1323.46 824.063 1310.54 828.918 1292.91 833.006 C 1282.68 834.765 1276.05 832.832 1260.52 836.099 C 1256.62 808.503 1246.91 793.801 1225.16 777.044 C 1234.25 774.045 1241.05 771.546 1250.59 770.326 z" fill="rgb(0,0,0)" transform="translate(0,0)"></path>
<path d="M 845.282 753.562 C 818.417 740.03 791.437 733.318 762.241 743.855 C 733.636 754.178 701.958 751.219 679.562 728.768 C 667.311 716.488 671.163 697.499 684.548 686.749 C 693.478 679.583 704.91 676.301 716.281 677.638 C 724.503 678.642 742.757 684.818 740.268 697.904 C 739.961 699.516 739.427 699.322 737.944 700.259 C 732.304 698.325 731.823 687.959 721.143 685.711 C 714.414 684.27 707.389 685.609 701.663 689.425 C 695.378 693.722 691.143 700.42 689.957 707.94 C 688.884 714.602 690.139 721.03 694.109 726.581 C 709.218 748.106 755.475 739.531 775.658 730.782 C 814.23 714.061 833.084 700.427 877.445 705.303 L 883.889 706.999 C 882.265 713.451 881.596 718.199 880.66 724.77 C 863.992 732.559 856.424 739.162 845.282 753.562 z" fill="rgb(0,0,0)" transform="translate(0,0)"></path>
<path d="M 781.208 558.291 C 795.704 544.084 810.107 563.342 794.695 569.806 C 792.463 566.725 793.049 562.324 789.456 562.714 C 787.472 564.912 787.767 564.579 787.518 567.451 C 786.658 577.399 780.849 565.934 781.208 558.291 z" fill="rgb(0,0,0)" transform="translate(0,0)"></path>
<path d="M 792.883 581.022 C 810.148 583.804 806.76 584.17 825.997 580.838 C 815.752 591.436 800.626 597.037 792.883 581.022 z" fill="rgb(0,0,0)" transform="translate(0,0)"></path>
<path d="M 940.542 481.623 C 937.117 486.084 935.47 488.252 931.383 492.181 L 930.615 490.353 C 932.699 487.643 937.711 483.95 940.542 481.623 z" fill="rgb(45,65,77)" transform="translate(0,0)"></path>
<path d="M 810.409 1550.7 L 812.126 1552.04 C 804.984 1560.73 804.073 1558.3 810.409 1550.7 z" fill="rgb(45,65,77)" transform="translate(0,0)"></path>
<metadata><recraft-signature>{"signed_by": "recraft", "signature_b64": "J6BlzoijsXEQ7IZPg+FB983b6cBProRPEIKh48stAd7JS92eNcO5mgLZdu6Pu37s5cSR+EF6dqyoyoOLVSp8AA==", "signing_algo": "Ed25519", "generation_timestamp": 1781044764, "identifier": "12ff5061-d3ed-48c8-8fce-bb0072d5aebd"}</recraft-signature></metadata></svg>