<svg xmlns="http://www.w3.org/2000/svg" style="display:none" aria-hidden="true" data-iconset="ryujin-calendar">
  <symbol id="cal-roof-inspection" viewBox="0 0 24 24" fill="none" stroke="currentColor" stroke-width="1.8" stroke-linecap="round" stroke-linejoin="round"><path d="M3 11.5 11 5l8 6.5"/><path d="M5 10v9h6.5"/><circle cx="16" cy="14.5" r="3.5"/><line x1="18.6" y1="17.1" x2="21.5" y2="20"/></symbol>
  <symbol id="cal-service-call" viewBox="0 0 24 24" fill="none" stroke="currentColor" stroke-width="1.8" stroke-linecap="round" stroke-linejoin="round"><path d="M6.5 4h3l1.5 4-1.8 1.4a11 11 0 0 0 5.4 5.4L16 13l4 1.5v3a1.5 1.5 0 0 1-1.6 1.5C10.7 19.5 4.5 13.3 4 5.6A1.5 1.5 0 0 1 5.5 4z"/><path d="M15 3a4 4 0 0 1 4 4"/><path d="M15 6.5a1 1 0 0 1 1 1"/></symbol>
  <symbol id="cal-site-inspection" viewBox="0 0 24 24" fill="none" stroke="currentColor" stroke-width="1.8" stroke-linecap="round" stroke-linejoin="round"><path d="M9 4H7a2 2 0 0 0-2 2v13a2 2 0 0 0 2 2h10a2 2 0 0 0 2-2V6a2 2 0 0 0-2-2h-2"/><rect x="9" y="3" width="6" height="3" rx="1"/><path d="M15 12.5a2.5 2.5 0 1 0-5 0c0 1.8 2.5 4 2.5 4s2.5-2.2 2.5-4z"/><circle cx="12.5" cy="12.4" r="0.6" fill="currentColor" stroke="none"/></symbol>
  <symbol id="cal-wx-clear" viewBox="0 0 24 24" fill="none" stroke="currentColor" stroke-width="1.8" stroke-linecap="round" stroke-linejoin="round"><circle cx="12" cy="12" r="4.5"/><line x1="12" y1="2.5" x2="12" y2="5"/><line x1="12" y1="19" x2="12" y2="21.5"/><line x1="2.5" y1="12" x2="5" y2="12"/><line x1="19" y1="12" x2="21.5" y2="12"/><line x1="5.28" y1="5.28" x2="7.05" y2="7.05"/><line x1="16.95" y1="16.95" x2="18.72" y2="18.72"/><line x1="5.28" y1="18.72" x2="7.05" y2="16.95"/><line x1="16.95" y1="7.05" x2="18.72" y2="5.28"/></symbol>
  <symbol id="cal-wx-cloudy" viewBox="0 0 24 24" fill="none" stroke="currentColor" stroke-width="1.8" stroke-linecap="round" stroke-linejoin="round"><path d="M7 18.5A4.5 4.5 0 0 1 6.6 9.55a5.5 5.5 0 0 1 10.66-1.36A4.25 4.25 0 0 1 17.5 18.5Z"/></symbol>
  <symbol id="cal-wx-rain" viewBox="0 0 24 24" fill="none" stroke="currentColor" stroke-width="1.8" stroke-linecap="round" stroke-linejoin="round"><path d="M7 14.5A4.5 4.5 0 0 1 6.6 5.55a5.5 5.5 0 0 1 10.66-1.36A4.25 4.25 0 0 1 17.5 14.5Z"/><line x1="8" y1="18" x2="7" y2="20.5"/><line x1="12" y1="18" x2="11" y2="20.5"/><line x1="16" y1="18" x2="15" y2="20.5"/></symbol>
  <symbol id="cal-wx-heavy" viewBox="0 0 24 24" fill="none" stroke="currentColor" stroke-width="1.8" stroke-linecap="round" stroke-linejoin="round"><path d="M7 13.5A4.5 4.5 0 0 1 6.6 4.55a5.5 5.5 0 0 1 10.66-1.36A4.25 4.25 0 0 1 17.5 13.5Z"/><line x1="7.5" y1="15.5" x2="5" y2="21.5"/><line x1="11" y1="15.5" x2="8.5" y2="21.5"/><line x1="14.5" y1="15.5" x2="12" y2="21.5"/><line x1="18" y1="15.5" x2="15.5" y2="21.5"/></symbol>
  <symbol id="cal-wx-snow" viewBox="0 0 24 24" fill="none" stroke="currentColor" stroke-width="1.8" stroke-linecap="round" stroke-linejoin="round"><path d="M7 13.5A4.5 4.5 0 0 1 6.6 4.55a5.5 5.5 0 0 1 10.66-1.36A4.25 4.25 0 0 1 17.5 13.5Z"/><line x1="12" y1="15.5" x2="12" y2="21.5"/><line x1="9.4" y1="17" x2="14.6" y2="20"/><line x1="14.6" y1="17" x2="9.4" y2="20"/></symbol>
  <symbol id="cal-round-robin" viewBox="0 0 24 24" fill="none" stroke="currentColor" stroke-width="1.8" stroke-linecap="round" stroke-linejoin="round"><path d="M20 8a8 8 0 0 0-14.3-2.6"/><polyline points="4 3 4 7 8 7"/><path d="M4 16a8 8 0 0 0 14.3 2.6"/><polyline points="20 21 20 17 16 17"/></symbol>
  <symbol id="cal-buffer" viewBox="0 0 24 24" fill="none" stroke="currentColor" stroke-width="1.8" stroke-linecap="round" stroke-linejoin="round"><circle cx="12" cy="12" r="9"/><polyline points="12 7 12 12 15.5 14"/></symbol>
  <symbol id="cal-booked" viewBox="0 0 24 24" fill="none" stroke="currentColor" stroke-width="1.8" stroke-linecap="round" stroke-linejoin="round"><path d="M19 4h-2M7 4H5a2 2 0 0 0-2 2v13a2 2 0 0 0 2 2h14a2 2 0 0 0 2-2V6a2 2 0 0 0-2-2z"/><line x1="8" y1="2" x2="8" y2="6"/><line x1="16" y1="2" x2="16" y2="6"/><line x1="3" y1="9.5" x2="21" y2="9.5"/><polyline points="8.5 15 11 17.5 15.5 13"/></symbol>
  <symbol id="cal-conflict" viewBox="0 0 24 24" fill="none" stroke="currentColor" stroke-width="1.8" stroke-linecap="round" stroke-linejoin="round"><path d="M19 4h-2M7 4H5a2 2 0 0 0-2 2v13a2 2 0 0 0 2 2h14a2 2 0 0 0 2-2V6a2 2 0 0 0-2-2z"/><line x1="8" y1="2" x2="8" y2="6"/><line x1="16" y1="2" x2="16" y2="6"/><line x1="3" y1="9.5" x2="21" y2="9.5"/><line x1="12" y1="13" x2="12" y2="16"/><circle cx="12" cy="18.5" r="0.5" fill="currentColor"/></symbol>
  <symbol id="cal-available" viewBox="0 0 24 24" fill="none" stroke="currentColor" stroke-width="1.8" stroke-linecap="round" stroke-linejoin="round"><path d="M19 4h-2M7 4H5a2 2 0 0 0-2 2v13a2 2 0 0 0 2 2h14a2 2 0 0 0 2-2V6a2 2 0 0 0-2-2z"/><line x1="8" y1="2" x2="8" y2="6"/><line x1="16" y1="2" x2="16" y2="6"/><line x1="3" y1="9.5" x2="21" y2="9.5"/><line x1="12" y1="12.5" x2="12" y2="18.5"/><line x1="9" y1="15.5" x2="15" y2="15.5"/></symbol>
  <symbol id="cal-inspector" viewBox="0 0 24 24" fill="none" stroke="currentColor" stroke-width="1.8" stroke-linecap="round" stroke-linejoin="round"><circle cx="10" cy="10" r="5"/><line x1="14" y1="14" x2="20" y2="20"/><circle cx="10" cy="10" r="1.6"/></symbol>
  <symbol id="cal-crew" viewBox="0 0 24 24" fill="none" stroke="currentColor" stroke-width="1.8" stroke-linecap="round" stroke-linejoin="round"><circle cx="9" cy="8" r="3"/><circle cx="17" cy="9.5" r="2.2"/><path d="M3 19v-1a6 6 0 0 1 12 0v1"/><path d="M16 13.5a5 5 0 0 1 5 4.5v1"/></symbol>
  <symbol id="cal-crew-atlantic" viewBox="0 0 24 24" fill="none" stroke="currentColor" stroke-width="1.8" stroke-linecap="round" stroke-linejoin="round"><path d="M12 3 5 6v5c0 4.4 3 8.2 7 9.5 4-1.3 7-5.1 7-9.5V6l-7-3Z"/><path d="m9 12 2 2 4-4"/></symbol>
  <symbol id="cal-crew-inhouse" viewBox="0 0 24 24" fill="none" stroke="currentColor" stroke-width="1.8" stroke-linecap="round" stroke-linejoin="round"><path d="M4 11 12 4l8 7"/><path d="M6 9.5V20h12V9.5"/><path d="M10 20v-5h4v5"/></symbol>
  <symbol id="cal-prev" viewBox="0 0 24 24" fill="none" stroke="currentColor" stroke-width="1.8" stroke-linecap="round" stroke-linejoin="round"><polyline points="15 5 8 12 15 19"/></symbol>
  <symbol id="cal-next" viewBox="0 0 24 24" fill="none" stroke="currentColor" stroke-width="1.8" stroke-linecap="round" stroke-linejoin="round"><polyline points="9 5 16 12 9 19"/></symbol>
  <symbol id="cal-today" viewBox="0 0 24 24" fill="none" stroke="currentColor" stroke-width="1.8" stroke-linecap="round" stroke-linejoin="round"><rect x="3" y="5" width="18" height="16" rx="2"/><line x1="3" y1="9" x2="21" y2="9"/><line x1="8" y1="3" x2="8" y2="6"/><line x1="16" y1="3" x2="16" y2="6"/><circle cx="12" cy="15" r="1.6" fill="currentColor" stroke="none"/></symbol>
  <symbol id="cal-new-booking" viewBox="0 0 24 24" fill="none" stroke="currentColor" stroke-width="1.8" stroke-linecap="round" stroke-linejoin="round"><path d="M21 11V7a2 2 0 0 0-2-2H5a2 2 0 0 0-2 2v12a2 2 0 0 0 2 2h6"/><line x1="3" y1="9" x2="21" y2="9"/><line x1="8" y1="3" x2="8" y2="6"/><line x1="16" y1="3" x2="16" y2="6"/><line x1="18" y1="14" x2="18" y2="20"/><line x1="15" y1="17" x2="21" y2="17"/></symbol>
  <symbol id="cal-filter" viewBox="0 0 24 24" fill="none" stroke="currentColor" stroke-width="1.8" stroke-linecap="round" stroke-linejoin="round"><polygon points="4 5 20 5 14 12.5 14 19 10 21 10 12.5 4 5"/></symbol>
  <symbol id="cal-settings" viewBox="0 0 24 24" fill="none" stroke="currentColor" stroke-width="1.8" stroke-linecap="round" stroke-linejoin="round"><circle cx="12" cy="12" r="3"/><path d="M19.4 15a1.65 1.65 0 0 0 .33 1.82l.06.06a2 2 0 1 1-2.83 2.83l-.06-.06a1.65 1.65 0 0 0-1.82-.33 1.65 1.65 0 0 0-1 1.51V21a2 2 0 0 1-4 0v-.09a1.65 1.65 0 0 0-1-1.51 1.65 1.65 0 0 0-1.82.33l-.06.06a2 2 0 1 1-2.83-2.83l.06-.06a1.65 1.65 0 0 0 .33-1.82 1.65 1.65 0 0 0-1.51-1H3a2 2 0 0 1 0-4h.09a1.65 1.65 0 0 0 1.51-1 1.65 1.65 0 0 0-.33-1.82l-.06-.06a2 2 0 1 1 2.83-2.83l.06.06a1.65 1.65 0 0 0 1.82.33H9a1.65 1.65 0 0 0 1-1.51V3a2 2 0 0 1 4 0v.09a1.65 1.65 0 0 0 1 1.51 1.65 1.65 0 0 0 1.82-.33l.06-.06a2 2 0 1 1 2.83 2.83l-.06.06a1.65 1.65 0 0 0-.33 1.82V9a1.65 1.65 0 0 0 1.51 1H21a2 2 0 0 1 0 4h-.09a1.65 1.65 0 0 0-1.51 1z"/></symbol>
</svg>
